<svg xmlns="http://www.w3.org/2000/svg" xmlns:xlink="http://www.w3.org/1999/xlink" width="100" zoomAndPan="magnify" viewBox="0 0 75 74.999997" height="100" preserveAspectRatio="xMidYMid meet" version="1.0"><defs><g/><clipPath id="15c3c70980"><path d="M 5.675781 5.019531 L 38 5.019531 L 38 68.769531 L 5.675781 68.769531 Z M 5.675781 5.019531 " clip-rule="nonzero"/></clipPath></defs><g clip-path="url(#15c3c70980)"><path fill="#000000" d="M 17.050781 51.5625 C 20.011719 54.480469 27.3125 57.699219 28.882812 57.710938 C 28.882812 57.710938 29.898438 58.445312 30.273438 59.394531 C 30.273438 59.394531 31.394531 61.703125 31.046875 62.351562 C 31.046875 62.351562 30.273438 63.796875 30.273438 64.078125 C 30.273438 64.078125 30.339844 65.554688 32.414062 64.988281 C 32.414062 64.988281 34.8125 62.863281 34.878906 61.582031 C 34.878906 61.582031 34.417969 60.316406 35.800781 59.394531 C 35.800781 59.394531 38.675781 56.0625 36.0625 55.714844 C 36.0625 55.714844 32.871094 55.878906 31.6875 54.96875 C 31.6875 54.96875 20.894531 46.902344 20.679688 45.046875 C 20.679688 45.046875 20.507812 43.921875 22.070312 42.394531 C 22.308594 42.066406 22.234375 44.054688 22.660156 43.464844 C 22.660156 43.464844 22.234375 45.238281 23.253906 44.351562 C 23.253906 44.351562 24.585938 44.53125 25.046875 43.464844 C 25.046875 43.464844 25.40625 43.609375 25.605469 43.152344 C 25.605469 43.152344 26.164062 41.816406 25.605469 40.300781 C 25.605469 40.300781 25.308594 36.625 25.605469 35.75 C 25.605469 35.75 25.933594 34.972656 25.96875 34.480469 C 25.96875 34.480469 27.941406 34.289062 28.664062 33.320312 C 28.859375 33.0625 29.15625 32.90625 29.480469 32.894531 C 30.390625 32.855469 32.027344 32.558594 32.101562 30.914062 C 32.101562 30.914062 32.101562 30.082031 32.265625 29.644531 C 32.425781 29.222656 32.527344 28.78125 32.566406 28.328125 C 32.574219 28.253906 32.578125 28.179688 32.585938 28.101562 C 32.609375 27.730469 32.570312 27.359375 32.46875 27.003906 C 32.296875 26.417969 32.019531 25.429688 31.886719 24.835938 C 31.886719 24.835938 31.835938 22.375 31.441406 21.59375 C 31.441406 21.59375 30.867188 20.410156 31.277344 19.675781 C 31.277344 19.675781 32.496094 16.410156 31.886719 15.226562 C 31.277344 14.046875 31.507812 13.8125 31.277344 13.402344 C 31.277344 13.402344 28.710938 10.464844 24.71875 11.597656 C 24.71875 11.597656 23.410156 12.304688 22.371094 12.511719 C 21.882812 12.605469 21.382812 12.4375 21.050781 12.070312 C 20.648438 11.632812 19.957031 10.933594 19.355469 10.621094 C 19.355469 10.621094 18.484375 10.375 18.125 10.621094 C 18.125 10.621094 19.054688 7.867188 17.679688 7.261719 C 17.679688 7.261719 17.996094 6.519531 17.144531 5.800781 C 16.535156 5.285156 15.71875 5.089844 14.941406 5.269531 C 13.65625 5.566406 11.105469 6.019531 9.878906 5.347656 C 9.878906 5.347656 9.390625 6.972656 10.820312 7.535156 C 10.820312 7.535156 9.921875 9.019531 10.371094 9.523438 C 10.371094 9.523438 9.886719 10.621094 9.480469 10.832031 C 9.363281 10.894531 9.308594 11.03125 9.351562 11.160156 C 9.390625 11.28125 9.5 11.394531 9.777344 11.394531 C 9.777344 11.394531 10.183594 11.726562 9.980469 11.875 C 9.980469 11.875 9.617188 12.28125 10.007812 12.382812 C 10.007812 12.382812 9.644531 12.835938 10.007812 12.996094 C 10.007812 12.996094 9.558594 13.84375 10.167969 14.046875 C 10.167969 14.046875 11.703125 14.121094 11.964844 14.527344 L 12.3125 14.964844 C 12.3125 14.964844 11.65625 15.503906 11.65625 16.144531 L 11.65625 16.789062 C 11.65625 16.789062 9.464844 16.140625 10.285156 19.675781 C 10.285156 19.675781 10.703125 20.722656 10.40625 21.507812 C 10.382812 21.566406 10.367188 21.625 10.351562 21.6875 C 10.175781 22.492188 8.964844 28.140625 9.355469 29.199219 C 9.355469 29.199219 6.96875 33.753906 7.589844 34.480469 C 7.589844 34.480469 7.613281 36.097656 6.96875 36.621094 C 6.96875 36.621094 6.503906 36.984375 6.191406 37.363281 C 6.003906 37.585938 5.90625 37.871094 5.917969 38.164062 C 5.929688 38.417969 5.945312 38.789062 5.953125 39.054688 C 5.964844 39.273438 6.046875 39.480469 6.1875 39.644531 C 6.675781 40.222656 7.839844 41.492188 7.902344 40.757812 C 7.902344 40.757812 9.703125 41.214844 9.355469 40.300781 C 9.355469 40.300781 7.839844 39.695312 8.257812 38.78125 C 8.257812 38.78125 9.539062 37.34375 9.085938 36.835938 C 9.085938 36.835938 10.195312 36.082031 10.285156 35.105469 C 10.285156 35.105469 11.257812 34.039062 11.613281 34.183594 C 11.636719 34.191406 11.65625 34.214844 11.664062 34.242188 C 11.71875 34.457031 12.046875 35.75 12.3125 35.75 C 12.3125 35.75 12.078125 38.476562 12.125 40.078125 C 12.15625 40.96875 11.996094 41.855469 11.660156 42.679688 C 10.34375 45.886719 7.71875 53.609375 10.285156 58.992188 C 10.285156 58.992188 11.398438 62.128906 11.109375 63 C 10.820312 63.871094 10.082031 64.625 9.355469 64.988281 C 9.355469 64.988281 7.335938 65.957031 6.621094 66.21875 C 6.621094 66.21875 5.675781 67.371094 6.96875 67.863281 C 8.257812 68.355469 11.332031 67.566406 12.3125 67.863281 C 12.3125 67.863281 15.925781 68.765625 15.761719 67.253906 C 15.761719 67.253906 14.628906 62.65625 14.972656 61.195312 C 14.972656 61.195312 15.5 56.808594 14.972656 54.96875 C 14.972656 54.96875 16.238281 53.371094 17.050781 51.5625 Z M 17.050781 51.5625 " fill-opacity="1" fill-rule="evenodd"/><path fill="#000000" d="M 9.878906 11.757812 C 9.875 11.761719 9.867188 11.765625 9.863281 11.773438 C 9.863281 11.773438 9.789062 11.859375 9.734375 11.964844 C 9.691406 12.054688 9.664062 12.152344 9.675781 12.242188 C 9.6875 12.316406 9.714844 12.390625 9.789062 12.449219 C 9.738281 12.542969 9.691406 12.667969 9.695312 12.785156 C 9.699219 12.882812 9.730469 12.976562 9.816406 13.054688 C 9.75 13.214844 9.664062 13.492188 9.707031 13.730469 C 9.746094 13.925781 9.859375 14.105469 10.121094 14.191406 C 10.132812 14.195312 10.148438 14.199219 10.160156 14.199219 C 10.160156 14.199219 10.757812 14.226562 11.261719 14.347656 C 11.410156 14.382812 11.546875 14.425781 11.660156 14.480469 C 11.738281 14.519531 11.804688 14.558594 11.835938 14.609375 C 11.839844 14.613281 11.84375 14.617188 11.84375 14.621094 L 12.109375 14.949219 C 11.988281 15.066406 11.796875 15.28125 11.660156 15.542969 C 11.570312 15.726562 11.507812 15.929688 11.507812 16.144531 L 11.507812 16.605469 C 11.175781 16.5625 10.503906 16.574219 10.15625 17.257812 C 9.933594 17.699219 9.847656 18.449219 10.140625 19.707031 C 10.140625 19.714844 10.144531 19.722656 10.144531 19.730469 C 10.144531 19.730469 10.300781 20.121094 10.351562 20.597656 C 10.378906 20.875 10.371094 21.183594 10.269531 21.453125 C 10.257812 21.488281 10.246094 21.519531 10.234375 21.554688 C 10.226562 21.589844 10.214844 21.621094 10.207031 21.65625 C 10.089844 22.191406 9.519531 24.863281 9.261719 26.914062 C 9.136719 27.925781 9.089844 28.789062 9.203125 29.1875 C 9.03125 29.519531 8.09375 31.359375 7.625 32.789062 C 7.472656 33.246094 7.371094 33.664062 7.351562 33.984375 C 7.339844 34.21875 7.375 34.402344 7.453125 34.523438 C 7.453125 34.6875 7.4375 35.273438 7.285156 35.800781 C 7.199219 36.085938 7.078125 36.355469 6.882812 36.515625 C 6.867188 36.527344 6.679688 36.675781 6.46875 36.875 C 6.339844 36.996094 6.203125 37.136719 6.085938 37.277344 C 5.984375 37.402344 5.902344 37.542969 5.851562 37.695312 C 5.800781 37.847656 5.777344 38.007812 5.785156 38.167969 C 5.785156 38.167969 5.820312 39.0625 5.820312 39.0625 C 5.828125 39.183594 5.851562 39.304688 5.898438 39.417969 C 5.941406 39.53125 6.003906 39.636719 6.085938 39.730469 C 6.433594 40.140625 7.113281 40.878906 7.519531 41.058594 C 7.660156 41.121094 7.777344 41.125 7.863281 41.078125 C 7.921875 41.046875 7.972656 40.996094 8.003906 40.914062 C 8.15625 40.945312 8.425781 40.992188 8.691406 41 C 8.910156 41.003906 9.125 40.980469 9.273438 40.90625 C 9.378906 40.855469 9.453125 40.78125 9.496094 40.683594 C 9.539062 40.578125 9.542969 40.4375 9.472656 40.253906 C 9.460938 40.222656 9.4375 40.195312 9.402344 40.179688 C 9.402344 40.179688 8.757812 39.929688 8.453125 39.5 C 8.324219 39.316406 8.257812 39.097656 8.363281 38.851562 C 8.457031 38.742188 9.019531 38.082031 9.222656 37.519531 C 9.3125 37.273438 9.332031 37.042969 9.25 36.867188 C 9.429688 36.730469 9.8125 36.40625 10.089844 35.976562 C 10.246094 35.730469 10.367188 35.453125 10.398438 35.15625 C 10.488281 35.0625 10.789062 34.75 11.089844 34.523438 C 11.199219 34.441406 11.304688 34.367188 11.402344 34.324219 C 11.460938 34.300781 11.511719 34.28125 11.550781 34.289062 C 11.601562 34.480469 11.789062 35.191406 11.988281 35.570312 C 12.039062 35.667969 12.09375 35.746094 12.144531 35.792969 C 12.160156 35.808594 12.175781 35.816406 12.191406 35.828125 C 12.164062 36.136719 12.078125 37.222656 12.035156 38.339844 C 12.011719 38.953125 11.996094 39.574219 12.015625 40.082031 C 12.027344 40.519531 11.996094 40.957031 11.921875 41.382812 C 11.84375 41.8125 11.722656 42.234375 11.558594 42.636719 C 10.726562 44.671875 9.375 48.507812 9.140625 52.417969 C 9.003906 54.710938 9.246094 57.027344 10.203125 59.023438 C 10.230469 59.105469 10.648438 60.292969 10.894531 61.386719 C 11.042969 62.039062 11.132812 62.660156 11.03125 62.972656 C 10.894531 63.386719 10.652344 63.777344 10.359375 64.105469 C 10.050781 64.453125 9.683594 64.734375 9.320312 64.917969 C 9.296875 64.929688 8.46875 65.328125 7.691406 65.679688 C 7.261719 65.875 6.847656 66.054688 6.59375 66.148438 C 6.582031 66.152344 6.570312 66.160156 6.5625 66.171875 C 6.5625 66.171875 6.152344 66.675781 6.222656 67.171875 C 6.257812 67.453125 6.441406 67.742188 6.941406 67.929688 C 7.230469 68.039062 7.601562 68.089844 8.023438 68.097656 C 9.492188 68.132812 11.53125 67.695312 12.296875 67.925781 C 12.296875 67.925781 14.054688 68.359375 15.074219 68.121094 C 15.554688 68.003906 15.875 67.746094 15.820312 67.25 C 15.820312 67.246094 15.820312 67.242188 15.820312 67.242188 C 15.820312 67.242188 15.355469 65.367188 15.109375 63.632812 C 14.96875 62.65625 14.898438 61.730469 15.023438 61.207031 C 15.023438 61.203125 15.023438 61.203125 15.023438 61.199219 C 15.023438 61.199219 15.25 59.285156 15.253906 57.453125 C 15.253906 56.515625 15.195312 55.605469 15.019531 54.976562 C 15.105469 54.867188 15.597656 54.226562 16.140625 53.34375 C 16.453125 52.832031 16.785156 52.242188 17.0625 51.625 C 18.371094 52.902344 20.5 54.238281 22.609375 55.332031 C 25.300781 56.734375 27.964844 57.742188 28.867188 57.765625 C 28.9375 57.820312 29.296875 58.097656 29.644531 58.503906 C 29.867188 58.761719 30.085938 59.074219 30.222656 59.417969 C 30.222656 59.417969 30.222656 59.417969 30.222656 59.421875 C 30.222656 59.421875 30.65625 60.320312 30.898438 61.152344 C 31.039062 61.632812 31.117188 62.089844 30.992188 62.324219 C 30.992188 62.328125 30.632812 63 30.402344 63.515625 C 30.289062 63.769531 30.210938 63.984375 30.210938 64.078125 C 30.210938 64.078125 30.210938 64.078125 30.210938 64.082031 C 30.210938 64.082031 30.238281 64.695312 30.800781 65.007812 C 31.125 65.1875 31.632812 65.269531 32.429688 65.050781 C 32.441406 65.050781 32.449219 65.046875 32.457031 65.039062 C 32.457031 65.039062 33.480469 64.136719 34.210938 63.148438 C 34.613281 62.609375 34.925781 62.042969 34.953125 61.585938 C 34.953125 61.574219 34.949219 61.566406 34.945312 61.554688 C 34.945312 61.554688 34.746094 61 35.03125 60.367188 C 35.164062 60.0625 35.414062 59.746094 35.839844 59.460938 C 35.847656 59.457031 35.851562 59.449219 35.855469 59.445312 C 35.855469 59.445312 37.058594 58.050781 37.222656 56.960938 C 37.265625 56.667969 37.234375 56.398438 37.101562 56.179688 C 36.9375 55.910156 36.621094 55.710938 36.074219 55.636719 C 36.066406 55.636719 36.0625 55.636719 36.058594 55.636719 C 36.058594 55.636719 34.664062 55.703125 33.382812 55.488281 C 32.742188 55.378906 32.128906 55.199219 31.742188 54.898438 C 31.742188 54.898438 26.898438 51.273438 23.644531 48.324219 C 22.5625 47.347656 21.660156 46.445312 21.164062 45.773438 C 20.941406 45.472656 20.804688 45.21875 20.78125 45.035156 C 20.78125 45.03125 20.78125 45.03125 20.78125 45.03125 C 20.78125 45.03125 20.722656 44.597656 21.058594 43.910156 C 21.25 43.515625 21.566406 43.046875 22.09375 42.523438 C 22.105469 42.566406 22.117188 42.613281 22.125 42.660156 C 22.179688 42.949219 22.226562 43.378906 22.328125 43.554688 C 22.375 43.636719 22.441406 43.679688 22.507812 43.683594 C 22.488281 43.800781 22.46875 43.949219 22.464844 44.09375 C 22.457031 44.285156 22.484375 44.464844 22.550781 44.570312 C 22.628906 44.6875 22.746094 44.75 22.933594 44.6875 C 23.027344 44.65625 23.144531 44.585938 23.289062 44.464844 C 23.441406 44.480469 23.90625 44.496094 24.351562 44.304688 C 24.644531 44.175781 24.925781 43.960938 25.109375 43.59375 C 25.195312 43.605469 25.324219 43.601562 25.449219 43.523438 C 25.542969 43.464844 25.636719 43.367188 25.710938 43.195312 C 25.710938 43.195312 25.964844 42.589844 25.96875 41.726562 C 25.972656 41.292969 25.910156 40.792969 25.722656 40.273438 C 25.707031 40.117188 25.605469 38.773438 25.59375 37.5625 C 25.585938 36.8125 25.613281 36.113281 25.71875 35.792969 C 25.738281 35.75 25.882812 35.402344 25.984375 35.03125 C 26.027344 34.882812 26.0625 34.730469 26.078125 34.589844 C 26.34375 34.554688 27.085938 34.4375 27.757812 34.136719 C 28.152344 33.960938 28.523438 33.71875 28.765625 33.398438 C 28.851562 33.285156 28.960938 33.191406 29.082031 33.128906 C 29.207031 33.0625 29.34375 33.027344 29.484375 33.019531 C 30.09375 32.996094 31.007812 32.855469 31.609375 32.308594 C 31.957031 31.996094 32.203125 31.550781 32.230469 30.917969 C 32.230469 30.917969 32.230469 30.914062 32.230469 30.914062 C 32.230469 30.914062 32.230469 30.539062 32.28125 30.164062 C 32.304688 29.992188 32.335938 29.824219 32.386719 29.691406 C 32.46875 29.476562 32.539062 29.253906 32.589844 29.027344 C 32.640625 28.800781 32.679688 28.570312 32.699219 28.339844 L 32.71875 28.109375 C 32.730469 27.917969 32.726562 27.722656 32.707031 27.53125 C 32.6875 27.339844 32.648438 27.152344 32.597656 26.964844 C 32.496094 26.621094 32.359375 26.132812 32.234375 25.671875 C 32.152344 25.359375 32.074219 25.058594 32.019531 24.820312 C 32.019531 24.695312 31.992188 23.734375 31.878906 22.851562 C 31.8125 22.320312 31.710938 21.820312 31.566406 21.53125 C 31.554688 21.511719 31.304688 20.988281 31.273438 20.4375 C 31.257812 20.195312 31.285156 19.949219 31.398438 19.742188 C 31.402344 19.734375 31.40625 19.730469 31.410156 19.722656 C 31.410156 19.722656 31.921875 18.347656 32.121094 17.050781 C 32.234375 16.3125 32.238281 15.601562 32.011719 15.164062 C 31.871094 14.882812 31.773438 14.660156 31.707031 14.472656 C 31.605469 14.179688 31.578125 13.984375 31.550781 13.824219 C 31.523438 13.644531 31.5 13.503906 31.402344 13.332031 C 31.398438 13.324219 31.394531 13.316406 31.386719 13.308594 C 31.386719 13.308594 30.242188 11.996094 28.289062 11.4375 C 27.285156 11.152344 26.066406 11.0625 24.675781 11.457031 C 24.667969 11.457031 24.65625 11.460938 24.648438 11.46875 C 24.648438 11.46875 24.015625 11.808594 23.285156 12.082031 C 22.976562 12.199219 22.648438 12.304688 22.34375 12.363281 C 22.125 12.40625 21.902344 12.390625 21.699219 12.320312 C 21.496094 12.253906 21.308594 12.132812 21.160156 11.972656 C 21.160156 11.96875 21.160156 11.96875 21.160156 11.96875 C 20.914062 11.703125 20.5625 11.335938 20.1875 11.019531 C 19.933594 10.808594 19.671875 10.617188 19.425781 10.488281 C 19.417969 10.484375 19.40625 10.480469 19.398438 10.476562 C 19.398438 10.476562 18.992188 10.363281 18.609375 10.359375 C 18.523438 10.359375 18.433594 10.367188 18.351562 10.378906 C 18.464844 9.957031 18.644531 9.148438 18.5625 8.433594 C 18.503906 7.90625 18.304688 7.433594 17.863281 7.183594 C 17.898438 7.019531 17.921875 6.730469 17.785156 6.394531 C 17.695312 6.171875 17.53125 5.925781 17.246094 5.683594 C 16.921875 5.410156 16.542969 5.222656 16.144531 5.125 C 15.742188 5.027344 15.320312 5.023438 14.90625 5.121094 C 14.160156 5.292969 12.976562 5.519531 11.882812 5.539062 C 11.140625 5.554688 10.4375 5.476562 9.953125 5.210938 C 9.910156 5.1875 9.863281 5.183594 9.820312 5.203125 C 9.777344 5.222656 9.742188 5.257812 9.730469 5.300781 C 9.730469 5.300781 9.515625 6.019531 9.765625 6.695312 C 9.894531 7.042969 10.140625 7.378906 10.601562 7.605469 C 10.460938 7.867188 10.183594 8.417969 10.109375 8.890625 C 10.070312 9.140625 10.09375 9.371094 10.195312 9.542969 C 10.125 9.6875 9.96875 10.003906 9.785156 10.28125 C 9.664062 10.464844 9.535156 10.632812 9.410156 10.695312 C 9.316406 10.746094 9.25 10.824219 9.214844 10.914062 C 9.175781 11.003906 9.171875 11.109375 9.203125 11.207031 C 9.234375 11.296875 9.289062 11.386719 9.390625 11.449219 C 9.46875 11.5 9.570312 11.535156 9.714844 11.542969 C 9.746094 11.570312 9.785156 11.613281 9.820312 11.65625 C 9.839844 11.679688 9.855469 11.707031 9.867188 11.730469 C 9.871094 11.738281 9.875 11.75 9.878906 11.757812 Z M 11.65625 16.9375 C 11.648438 16.941406 11.605469 16.949219 11.570312 16.921875 C 11.390625 16.878906 10.734375 16.78125 10.425781 17.394531 C 10.21875 17.796875 10.164062 18.480469 10.425781 19.628906 C 10.457031 19.710938 10.640625 20.210938 10.660156 20.765625 C 10.667969 21.03125 10.640625 21.308594 10.546875 21.558594 L 10.496094 21.722656 C 10.378906 22.253906 9.804688 24.910156 9.546875 26.949219 C 9.417969 27.953125 9.359375 28.804688 9.488281 29.152344 C 9.5 29.1875 9.5 29.230469 9.480469 29.265625 C 9.480469 29.265625 8.402344 31.316406 7.886719 32.875 C 7.746094 33.308594 7.644531 33.699219 7.628906 34 C 7.617188 34.175781 7.628906 34.3125 7.695312 34.390625 C 7.714844 34.414062 7.726562 34.445312 7.730469 34.476562 C 7.730469 34.476562 7.738281 35.222656 7.546875 35.875 C 7.445312 36.21875 7.285156 36.535156 7.054688 36.726562 C 7.050781 36.726562 7.050781 36.726562 7.050781 36.726562 C 7.050781 36.726562 6.867188 36.871094 6.65625 37.074219 C 6.535156 37.1875 6.402344 37.316406 6.292969 37.449219 C 6.210938 37.550781 6.148438 37.660156 6.105469 37.78125 C 6.066406 37.902344 6.046875 38.027344 6.050781 38.15625 L 6.085938 39.050781 C 6.089844 39.144531 6.109375 39.234375 6.144531 39.324219 C 6.179688 39.410156 6.226562 39.488281 6.285156 39.5625 C 6.523438 39.839844 6.917969 40.28125 7.265625 40.574219 C 7.398438 40.683594 7.519531 40.773438 7.625 40.820312 C 7.65625 40.835938 7.683594 40.84375 7.707031 40.847656 C 7.722656 40.851562 7.734375 40.851562 7.742188 40.847656 C 7.75 40.84375 7.753906 40.835938 7.757812 40.824219 C 7.765625 40.804688 7.769531 40.777344 7.773438 40.746094 C 7.777344 40.707031 7.796875 40.671875 7.828125 40.652344 C 7.859375 40.628906 7.898438 40.621094 7.933594 40.632812 C 7.933594 40.632812 8.589844 40.800781 9.011719 40.722656 C 9.117188 40.703125 9.207031 40.671875 9.25 40.601562 C 9.28125 40.550781 9.28125 40.484375 9.253906 40.394531 C 9.078125 40.316406 8.53125 40.046875 8.246094 39.644531 C 8.0625 39.386719 7.984375 39.078125 8.144531 38.730469 C 8.148438 38.71875 8.15625 38.707031 8.164062 38.699219 C 8.164062 38.699219 8.648438 38.15625 8.90625 37.625 C 8.988281 37.464844 9.046875 37.304688 9.054688 37.164062 C 9.0625 37.066406 9.050781 36.984375 8.992188 36.917969 C 8.96875 36.894531 8.957031 36.859375 8.960938 36.824219 C 8.964844 36.789062 8.984375 36.753906 9.015625 36.734375 C 9.015625 36.734375 9.539062 36.378906 9.882812 35.84375 C 10.027344 35.621094 10.136719 35.367188 10.164062 35.09375 C 10.164062 35.066406 10.175781 35.042969 10.195312 35.023438 C 10.195312 35.023438 10.671875 34.503906 11.085938 34.230469 C 11.210938 34.144531 11.335938 34.085938 11.4375 34.0625 C 11.519531 34.042969 11.59375 34.046875 11.65625 34.070312 C 11.65625 34.070312 11.660156 34.070312 11.660156 34.070312 C 11.691406 34.085938 11.714844 34.105469 11.734375 34.128906 C 11.757812 34.152344 11.769531 34.179688 11.777344 34.210938 C 11.808594 34.332031 11.925781 34.789062 12.066406 35.164062 C 12.128906 35.324219 12.191406 35.46875 12.257812 35.5625 C 12.273438 35.585938 12.289062 35.605469 12.304688 35.621094 C 12.308594 35.625 12.316406 35.628906 12.320312 35.632812 C 12.351562 35.632812 12.378906 35.648438 12.402344 35.667969 C 12.421875 35.695312 12.433594 35.726562 12.433594 35.757812 C 12.433594 35.757812 12.320312 37.035156 12.265625 38.351562 C 12.238281 38.957031 12.226562 39.570312 12.238281 40.074219 C 12.253906 40.527344 12.21875 40.980469 12.140625 41.421875 C 12.058594 41.867188 11.933594 42.300781 11.761719 42.71875 C 10.933594 44.738281 9.582031 48.546875 9.335938 52.429688 C 9.195312 54.691406 9.425781 56.980469 10.363281 58.953125 C 10.367188 58.957031 10.367188 58.957031 10.367188 58.960938 C 10.367188 58.960938 10.921875 60.527344 11.144531 61.757812 C 11.242188 62.289062 11.277344 62.761719 11.1875 63.027344 C 11.042969 63.460938 10.789062 63.867188 10.480469 64.214844 C 10.15625 64.574219 9.773438 64.871094 9.390625 65.058594 C 9.390625 65.058594 8.546875 65.460938 7.753906 65.820312 C 7.332031 66.011719 6.921875 66.1875 6.667969 66.285156 C 6.601562 66.367188 6.316406 66.761719 6.367188 67.152344 C 6.398438 67.394531 6.566406 67.632812 6.992188 67.792969 C 7.269531 67.898438 7.625 67.945312 8.027344 67.957031 C 9.503906 67.992188 11.558594 67.566406 12.332031 67.800781 C 12.394531 67.816406 14.066406 68.230469 15.046875 68 C 15.460938 67.902344 15.746094 67.691406 15.703125 67.265625 C 15.679688 67.167969 15.234375 65.339844 15 63.644531 C 14.863281 62.660156 14.796875 61.714844 14.921875 61.183594 C 14.933594 61.101562 15.15625 59.234375 15.160156 57.449219 C 15.164062 56.515625 15.109375 55.601562 14.933594 54.980469 C 14.929688 54.96875 14.933594 54.953125 14.941406 54.941406 C 14.941406 54.941406 15.476562 54.269531 16.074219 53.300781 C 16.394531 52.78125 16.734375 52.179688 17.019531 51.546875 C 17.023438 51.539062 17.035156 51.53125 17.046875 51.527344 C 17.058594 51.527344 17.070312 51.527344 17.078125 51.539062 C 18.382812 52.820312 20.523438 54.15625 22.652344 55.253906 C 25.34375 56.644531 28.007812 57.652344 28.882812 57.65625 C 28.894531 57.65625 28.90625 57.660156 28.914062 57.667969 C 28.914062 57.667969 29.328125 57.964844 29.730469 58.429688 C 29.960938 58.699219 30.1875 59.019531 30.328125 59.375 C 30.351562 59.421875 30.886719 60.535156 31.09375 61.421875 C 31.1875 61.824219 31.207031 62.179688 31.101562 62.382812 C 31.101562 62.382812 30.742188 63.050781 30.515625 63.566406 C 30.414062 63.796875 30.339844 63.992188 30.339844 64.078125 C 30.339844 64.109375 30.378906 64.628906 30.863281 64.894531 C 31.167969 65.0625 31.640625 65.128906 32.378906 64.925781 C 32.492188 64.824219 33.421875 63.980469 34.097656 63.066406 C 34.476562 62.554688 34.777344 62.023438 34.804688 61.589844 C 34.773438 61.492188 34.613281 60.933594 34.894531 60.304688 C 35.039062 59.984375 35.296875 59.644531 35.75 59.339844 C 35.84375 59.230469 36.917969 57.949219 37.066406 56.9375 C 37.101562 56.6875 37.082031 56.453125 36.964844 56.261719 C 36.820312 56.027344 36.535156 55.863281 36.058594 55.796875 C 35.949219 55.804688 34.597656 55.863281 33.355469 55.652344 C 32.683594 55.542969 32.046875 55.351562 31.636719 55.039062 C 31.597656 55.007812 26.765625 51.40625 23.511719 48.46875 C 22.417969 47.484375 21.5 46.574219 21 45.894531 C 20.746094 45.554688 20.601562 45.269531 20.574219 45.058594 C 20.570312 45.03125 20.507812 44.554688 20.867188 43.816406 C 21.070312 43.394531 21.414062 42.886719 21.988281 42.324219 C 22.03125 42.269531 22.078125 42.253906 22.113281 42.25 C 22.167969 42.246094 22.238281 42.28125 22.277344 42.386719 C 22.351562 42.570312 22.386719 43.085938 22.480469 43.363281 C 22.492188 43.394531 22.511719 43.433594 22.523438 43.453125 C 22.539062 43.441406 22.558594 43.421875 22.574219 43.398438 C 22.605469 43.355469 22.660156 43.339844 22.707031 43.363281 C 22.753906 43.386719 22.78125 43.4375 22.769531 43.488281 C 22.769531 43.488281 22.691406 43.808594 22.683594 44.101562 C 22.679688 44.238281 22.6875 44.371094 22.738281 44.453125 C 22.761719 44.488281 22.804688 44.496094 22.863281 44.476562 C 22.945312 44.449219 23.046875 44.382812 23.179688 44.265625 C 23.203125 44.246094 23.238281 44.234375 23.269531 44.238281 C 23.269531 44.238281 23.777344 44.308594 24.261719 44.097656 C 24.527344 43.980469 24.789062 43.773438 24.941406 43.417969 C 24.964844 43.363281 25.03125 43.335938 25.089844 43.359375 C 25.089844 43.359375 25.207031 43.40625 25.328125 43.332031 C 25.390625 43.292969 25.449219 43.222656 25.5 43.105469 C 25.507812 43.085938 25.734375 42.523438 25.738281 41.726562 C 25.738281 41.3125 25.679688 40.835938 25.496094 40.339844 C 25.492188 40.332031 25.488281 40.320312 25.488281 40.308594 C 25.488281 40.308594 25.339844 38.492188 25.355469 37.105469 C 25.359375 36.503906 25.398438 35.980469 25.488281 35.710938 C 25.492188 35.707031 25.492188 35.703125 25.492188 35.703125 C 25.492188 35.703125 25.644531 35.347656 25.75 34.964844 C 25.796875 34.796875 25.835938 34.621094 25.84375 34.472656 C 25.847656 34.410156 25.894531 34.363281 25.953125 34.359375 C 25.953125 34.359375 26.855469 34.269531 27.652344 33.910156 C 28.011719 33.75 28.347656 33.535156 28.5625 33.246094 C 28.671875 33.101562 28.808594 32.984375 28.964844 32.902344 C 29.121094 32.820312 29.296875 32.773438 29.476562 32.765625 C 29.949219 32.746094 30.628906 32.65625 31.164062 32.324219 C 31.601562 32.050781 31.9375 31.613281 31.96875 30.910156 C 31.96875 30.878906 31.972656 30.503906 32.023438 30.128906 C 32.046875 29.9375 32.085938 29.746094 32.140625 29.597656 C 32.21875 29.394531 32.285156 29.183594 32.332031 28.96875 C 32.382812 28.753906 32.417969 28.535156 32.4375 28.316406 L 32.453125 28.089844 C 32.464844 27.914062 32.460938 27.738281 32.441406 27.558594 C 32.421875 27.382812 32.390625 27.210938 32.339844 27.039062 C 32.238281 26.691406 32.097656 26.207031 31.976562 25.742188 C 31.886719 25.421875 31.808594 25.109375 31.753906 24.867188 C 31.753906 24.855469 31.75 24.847656 31.75 24.839844 C 31.75 24.839844 31.730469 23.816406 31.609375 22.886719 C 31.542969 22.390625 31.453125 21.921875 31.320312 21.65625 C 31.320312 21.65625 31.320312 21.652344 31.316406 21.652344 C 31.316406 21.652344 31.035156 21.070312 30.996094 20.453125 C 30.976562 20.164062 31.015625 19.867188 31.152344 19.617188 C 31.195312 19.496094 31.65625 18.214844 31.839844 17.007812 C 31.941406 16.335938 31.964844 15.691406 31.757812 15.292969 C 31.609375 15 31.507812 14.765625 31.4375 14.570312 C 31.328125 14.253906 31.296875 14.042969 31.269531 13.867188 C 31.246094 13.730469 31.230469 13.617188 31.160156 13.488281 C 31.046875 13.363281 29.972656 12.21875 28.210938 11.71875 C 27.253906 11.445312 26.09375 11.363281 24.773438 11.734375 C 24.671875 11.789062 24.074219 12.105469 23.390625 12.359375 C 23.066406 12.484375 22.71875 12.59375 22.398438 12.65625 C 22.128906 12.707031 21.859375 12.6875 21.605469 12.605469 C 21.355469 12.523438 21.125 12.375 20.9375 12.171875 C 20.699219 11.914062 20.355469 11.558594 19.992188 11.25 C 19.761719 11.054688 19.527344 10.882812 19.300781 10.761719 C 19.230469 10.746094 18.914062 10.664062 18.609375 10.664062 C 18.457031 10.664062 18.308594 10.679688 18.210938 10.746094 C 18.15625 10.785156 18.085938 10.78125 18.03125 10.742188 C 17.980469 10.703125 17.960938 10.636719 17.980469 10.574219 C 17.980469 10.574219 18.371094 9.425781 18.261719 8.46875 C 18.207031 8.007812 18.039062 7.585938 17.617188 7.402344 C 17.542969 7.367188 17.507812 7.277344 17.539062 7.203125 C 17.539062 7.203125 17.660156 6.898438 17.503906 6.507812 C 17.425781 6.324219 17.285156 6.121094 17.046875 5.917969 C 16.761719 5.675781 16.425781 5.507812 16.070312 5.421875 C 15.714844 5.339844 15.34375 5.335938 14.976562 5.417969 C 14.210938 5.59375 13.007812 5.824219 11.890625 5.847656 C 11.175781 5.863281 10.496094 5.789062 9.984375 5.570312 C 9.945312 5.796875 9.910156 6.199219 10.054688 6.585938 C 10.171875 6.90625 10.414062 7.207031 10.875 7.390625 C 10.917969 7.40625 10.953125 7.441406 10.964844 7.484375 C 10.980469 7.527344 10.976562 7.574219 10.953125 7.613281 C 10.953125 7.613281 10.601562 8.195312 10.457031 8.742188 C 10.414062 8.902344 10.390625 9.0625 10.402344 9.195312 C 10.410156 9.285156 10.433594 9.363281 10.488281 9.421875 C 10.527344 9.46875 10.535156 9.53125 10.511719 9.585938 C 10.511719 9.585938 10.300781 10.058594 10.042969 10.453125 C 9.886719 10.683594 9.710938 10.886719 9.554688 10.96875 C 9.527344 10.980469 9.507812 11.003906 9.5 11.027344 C 9.488281 11.054688 9.488281 11.082031 9.496094 11.109375 C 9.507812 11.148438 9.535156 11.183594 9.585938 11.207031 C 9.632812 11.226562 9.695312 11.238281 9.777344 11.238281 C 9.8125 11.238281 9.847656 11.25 9.875 11.273438 C 9.875 11.273438 10.121094 11.488281 10.175781 11.675781 C 10.210938 11.792969 10.191406 11.902344 10.085938 11.988281 C 10.058594 12.015625 9.992188 12.097656 9.980469 12.179688 C 9.980469 12.1875 9.976562 12.199219 9.980469 12.203125 C 9.992188 12.222656 10.015625 12.226562 10.046875 12.234375 C 10.097656 12.25 10.136719 12.285156 10.152344 12.335938 C 10.171875 12.386719 10.160156 12.441406 10.128906 12.480469 C 10.128906 12.480469 10.027344 12.605469 10.003906 12.730469 C 10 12.757812 9.996094 12.785156 10.007812 12.808594 C 10.019531 12.828125 10.039062 12.84375 10.070312 12.855469 C 10.109375 12.875 10.140625 12.90625 10.152344 12.945312 C 10.167969 12.988281 10.164062 13.03125 10.144531 13.070312 C 10.144531 13.070312 9.957031 13.402344 10.007812 13.675781 C 10.027344 13.769531 10.082031 13.851562 10.199219 13.894531 C 10.332031 13.902344 11.023438 13.949219 11.523438 14.105469 C 11.785156 14.183594 11.992188 14.300781 12.085938 14.4375 L 12.433594 14.871094 C 12.484375 14.933594 12.476562 15.03125 12.410156 15.082031 C 12.410156 15.082031 12.171875 15.277344 11.992188 15.570312 C 11.890625 15.738281 11.808594 15.933594 11.808594 16.144531 C 11.808594 16.488281 11.808594 16.648438 11.808594 16.722656 C 11.808594 16.984375 11.65625 16.9375 11.65625 16.9375 Z M 11.65625 16.9375 " fill-opacity="1" fill-rule="evenodd"/></g><g fill="#1e1e1e" fill-opacity="1"><g transform="translate(34.44863, 27.169641)"><g><path d="M 4.601562 -0.1875 C 5.585938 0.0742188 6.457031 -0.320312 6.910156 -1.210938 C 7.078125 -1.589844 7.289062 -1.949219 7.496094 -2.308594 C 8.101562 -3.40625 8.328125 -4.601562 8.195312 -5.832031 C 8.101562 -6.832031 7.589844 -7.441406 6.605469 -7.363281 C 6.324219 -7.34375 6.039062 -7.421875 5.734375 -7.441406 C 5.207031 -7.496094 4.828125 -7.25 4.847656 -6.832031 C 4.847656 -6.492188 5.207031 -6.265625 5.734375 -6.304688 C 5.8125 -6.304688 5.886719 -6.304688 5.945312 -6.324219 C 6.191406 -6.378906 6.4375 -6.304688 6.683594 -6.285156 C 7.003906 -6.246094 7.136719 -6.058594 7.136719 -5.753906 C 7.195312 -4.390625 6.816406 -3.140625 6.132812 -1.988281 C 5.832031 -1.457031 5.339844 -1.25 4.714844 -1.324219 C 3.863281 -1.4375 3.292969 -1.949219 3.027344 -2.6875 C 2.480469 -4.089844 2.042969 -5.546875 2.0625 -6.949219 C 2.234375 -9.125 2.273438 -10.28125 3.027344 -11.925781 C 3.292969 -12.496094 3.710938 -12.988281 3.976562 -13.554688 C 4.203125 -14.046875 4.582031 -14.386719 4.960938 -14.726562 C 5.375 -15.125 5.8125 -15.105469 6.304688 -14.917969 C 6.796875 -14.726562 7.0625 -14.386719 7.0625 -13.855469 C 7.0625 -13.761719 7.0625 -13.667969 7.078125 -13.574219 C 7.117188 -13.363281 7.210938 -13.195312 7.441406 -13.15625 C 7.667969 -13.136719 7.800781 -13.289062 7.894531 -13.460938 C 7.988281 -13.628906 7.988281 -13.800781 7.988281 -13.972656 C 7.988281 -15.429688 6.226562 -16.507812 4.921875 -15.824219 C 3.710938 -15.183594 2.820312 -14.199219 2.234375 -13.003906 C 1.78125 -12.078125 1.550781 -11.035156 1.304688 -10.015625 C 0.945312 -8.574219 0.890625 -7.136719 0.984375 -5.679688 C 1.058594 -4.410156 1.34375 -3.199219 2.0625 -2.15625 C 2.6875 -1.230469 3.484375 -0.492188 4.601562 -0.1875 Z M 4.601562 -0.1875 "/></g></g></g><g fill="#1e1e1e" fill-opacity="1"><g transform="translate(43.627729, 27.169641)"><g><path d="M 4.882812 0.171875 C 5.394531 0.320312 5.980469 0.378906 6.4375 0.0742188 C 7.078125 -0.359375 7.648438 -0.910156 7.894531 -1.703125 L 8.121094 -2.554688 C 8.574219 -4.144531 8.953125 -5.753906 8.917969 -7.6875 C 8.972656 -8.214844 8.839844 -8.992188 8.785156 -9.769531 C 8.707031 -11.414062 8.519531 -13.023438 7.589844 -14.445312 C 7.441406 -14.710938 7.269531 -14.917969 7.023438 -15.085938 C 5.945312 -15.75 4.714844 -15.636719 3.691406 -14.824219 C 2.933594 -14.21875 2.480469 -13.421875 2.101562 -12.570312 C 1.417969 -11.019531 0.910156 -9.445312 0.945312 -7.722656 C 0.945312 -6.816406 1.097656 -5.925781 1.210938 -5.035156 C 1.363281 -4.011719 1.628906 -3.027344 2.082031 -2.101562 C 2.648438 -0.925781 3.617188 -0.152344 4.882812 0.171875 Z M 6.039062 -1.230469 C 5.527344 -0.644531 4.5625 -0.71875 3.898438 -1.402344 C 3.21875 -2.082031 2.707031 -2.878906 2.402344 -3.804688 C 1.96875 -5.242188 1.835938 -6.683594 1.96875 -8.195312 C 2.101562 -9.523438 2.367188 -10.753906 2.992188 -11.90625 C 3.425781 -12.722656 3.976562 -13.460938 4.617188 -14.140625 C 5.207031 -14.726562 6.132812 -14.671875 6.664062 -14.046875 C 7.230469 -13.382812 7.554688 -12.644531 7.6875 -11.792969 C 7.875 -10.601562 8.046875 -9.390625 7.988281 -8.386719 C 7.988281 -6.472656 7.761719 -4.828125 7.269531 -3.199219 C 7.042969 -2.421875 6.550781 -1.816406 6.039062 -1.230469 Z M 6.039062 -1.230469 "/></g></g></g><g fill="#1e1e1e" fill-opacity="1"><g transform="translate(34.44863, 45.903039)"><g><path d="M 1.664062 0.511719 C 2.042969 0.378906 2.402344 0.246094 2.765625 0.09375 C 3.3125 -0.132812 3.878906 -0.246094 4.46875 -0.226562 C 5.566406 -0.207031 6.664062 -0.0585938 7.722656 0.1875 C 7.96875 0.226562 8.195312 0.304688 8.441406 0.226562 C 8.726562 0.152344 8.839844 -0.0390625 8.859375 -0.304688 C 8.859375 -0.585938 8.707031 -0.699219 8.460938 -0.738281 C 7.988281 -0.796875 7.554688 -0.890625 7.078125 -0.945312 C 5.660156 -1.117188 4.257812 -1.402344 2.839844 -1.003906 C 2.746094 -1.15625 2.839844 -1.25 2.894531 -1.34375 L 4.410156 -3.765625 C 5.773438 -5.945312 7.042969 -8.160156 7.648438 -10.675781 C 7.933594 -11.851562 8.101562 -13.023438 7.570312 -14.199219 C 7.175781 -15.070312 6.398438 -15.484375 5.453125 -15.257812 C 4.410156 -14.992188 3.484375 -14.539062 2.613281 -13.914062 C 2.308594 -13.6875 2.101562 -13.402344 1.949219 -13.0625 C 1.796875 -12.742188 1.910156 -12.496094 2.234375 -12.363281 C 2.59375 -12.191406 2.800781 -12.25 3.105469 -12.644531 C 3.652344 -13.382812 4.371094 -13.875 5.28125 -14.121094 C 6.171875 -14.347656 6.570312 -14.140625 6.796875 -13.269531 C 7.097656 -12.117188 6.871094 -11.054688 6.285156 -10.050781 C 5.601562 -8.859375 4.921875 -7.6875 4.429688 -6.398438 C 4.277344 -5.980469 4.164062 -5.527344 3.957031 -5.109375 C 3.445312 -3.996094 2.765625 -2.992188 2.101562 -1.96875 C 1.722656 -1.417969 1.402344 -0.851562 1.078125 -0.285156 C 0.945312 -0.09375 0.871094 0.113281 1.023438 0.320312 C 1.191406 0.566406 1.417969 0.585938 1.664062 0.511719 Z M 1.664062 0.511719 "/></g></g></g><g fill="#1e1e1e" fill-opacity="1"><g transform="translate(34.44863, 64.636437)"><g><path d="M 4.355469 -0.113281 C 4.601562 -0.09375 4.695312 -0.285156 4.789062 -0.453125 C 4.941406 -0.71875 4.941406 -1.003906 4.960938 -1.304688 C 5.074219 -2.820312 5.035156 -4.371094 5.09375 -5.886719 C 5.1875 -7.988281 5.261719 -10.070312 5.1875 -12.171875 C 5.167969 -12.871094 5.1875 -13.59375 5.1875 -14.292969 C 5.1875 -14.652344 5.339844 -14.859375 5.734375 -14.917969 C 6.339844 -14.972656 6.949219 -15.070312 7.554688 -15.183594 C 7.96875 -15.238281 8.121094 -15.523438 7.96875 -15.902344 C 7.835938 -16.203125 7.570312 -16.128906 7.34375 -16.109375 C 6.191406 -16.035156 5.054688 -15.941406 3.996094 -15.996094 C 3.519531 -15.996094 3.125 -15.957031 2.746094 -16.015625 C 2.328125 -16.070312 1.929688 -16.015625 1.515625 -15.976562 C 1.210938 -15.957031 0.964844 -15.84375 0.945312 -15.523438 C 0.910156 -15.164062 1.191406 -15.105469 1.457031 -15.050781 C 2.082031 -14.917969 2.726562 -14.898438 3.351562 -14.878906 C 4.089844 -14.859375 4.109375 -14.839844 4.144531 -14.085938 L 4.144531 -13.933594 C 4.089844 -12.117188 4.011719 -10.296875 3.976562 -8.480469 C 3.9375 -7.570312 3.878906 -6.664062 3.957031 -5.773438 C 4.089844 -4.335938 4.03125 -2.894531 3.9375 -1.476562 C 3.917969 -1.15625 3.996094 -0.832031 4.011719 -0.53125 C 4.03125 -0.320312 4.125 -0.132812 4.355469 -0.113281 Z M 4.355469 -0.113281 "/></g></g></g><g fill="#1e1e1e" fill-opacity="1"><g transform="translate(43.419541, 64.636437)"><g><path d="M 7.628906 -0.152344 C 7.914062 0.0195312 8.386719 -0.171875 8.519531 -0.453125 C 8.671875 -0.796875 8.480469 -1.023438 8.234375 -1.210938 C 8.160156 -1.269531 8.0625 -1.34375 7.988281 -1.34375 C 7.496094 -1.363281 7.308594 -1.722656 7.042969 -2.042969 C 6.605469 -2.632812 6.378906 -3.292969 6.226562 -3.996094 C 5.980469 -5.054688 5.925781 -6.152344 5.394531 -7.15625 C 5.300781 -7.324219 5.300781 -7.570312 5.242188 -7.78125 C 5.109375 -8.273438 5.226562 -8.632812 5.601562 -9.011719 C 6.890625 -10.296875 7.441406 -11.792969 6.796875 -13.609375 C 6.605469 -14.101562 6.359375 -14.5 5.945312 -14.859375 C 5.507812 -15.21875 4.996094 -15.371094 4.503906 -15.523438 C 3.730469 -15.769531 2.933594 -15.902344 2.121094 -15.84375 C 1.304688 -15.789062 0.890625 -15.257812 0.945312 -14.5 C 1.058594 -12.777344 1.210938 -11.054688 1.136719 -9.332031 C 1.058594 -7.589844 1.25 -5.867188 1.304688 -4.144531 C 1.324219 -3.292969 1.4375 -2.460938 1.382812 -1.609375 C 1.34375 -1.269531 1.382812 -0.925781 1.496094 -0.585938 C 1.535156 -0.417969 1.628906 -0.265625 1.835938 -0.265625 C 2.027344 -0.265625 2.140625 -0.398438 2.234375 -0.550781 C 2.347656 -0.738281 2.308594 -0.964844 2.328125 -1.191406 C 2.421875 -2.5 2.175781 -3.804688 2.15625 -5.128906 C 2.15625 -5.488281 2.195312 -5.867188 2.15625 -6.226562 C 2.121094 -6.550781 2.234375 -6.71875 2.519531 -6.851562 C 2.894531 -7.023438 3.273438 -7.175781 3.652344 -7.363281 C 4.222656 -7.628906 4.222656 -7.628906 4.410156 -7.0625 C 4.75 -6.113281 4.980469 -5.148438 5.167969 -4.164062 C 5.320312 -3.3125 5.640625 -2.519531 5.964844 -1.742188 C 6.285156 -0.984375 6.984375 -0.566406 7.628906 -0.152344 Z M 2.175781 -7.914062 C 1.929688 -8.0625 2.027344 -8.386719 2.042969 -8.652344 L 2.042969 -9.445312 C 2.007812 -10.449219 2.308594 -11.433594 2.234375 -12.4375 C 2.195312 -12.988281 2.140625 -13.554688 2.121094 -14.101562 C 2.121094 -14.726562 2.195312 -14.804688 2.800781 -14.765625 C 3.257812 -14.726562 3.710938 -14.652344 4.164062 -14.558594 C 4.503906 -14.5 4.789062 -14.3125 5.015625 -14.027344 C 5.148438 -13.855469 5.300781 -13.707031 5.453125 -13.535156 C 6.378906 -12.4375 6.417969 -11.320312 5.472656 -10.242188 C 4.734375 -9.425781 3.878906 -8.746094 2.972656 -8.121094 C 2.746094 -7.949219 2.460938 -7.722656 2.175781 -7.914062 Z M 2.175781 -7.914062 "/></g></g></g><g fill="#1e1e1e" fill-opacity="1"><g transform="translate(52.939305, 64.636437)"><g><path d="M 2.273438 0.304688 C 2.878906 0.171875 3.484375 0.1875 4.089844 0.1875 C 4.601562 0.171875 5.109375 0.113281 5.621094 0.0742188 C 5.886719 0.0585938 6 -0.09375 5.945312 -0.378906 C 5.867188 -0.679688 5.699219 -0.851562 5.394531 -0.871094 C 5.1875 -0.890625 4.960938 -0.871094 4.75 -0.851562 C 4.109375 -0.757812 4.125 -0.757812 3.996094 -1.382812 C 3.691406 -2.726562 3.75 -4.089844 3.765625 -5.792969 C 3.824219 -7.15625 3.691406 -8.839844 3.785156 -10.542969 C 3.84375 -11.699219 3.804688 -12.835938 3.84375 -13.988281 C 3.84375 -14.5 3.957031 -14.578125 4.449219 -14.539062 C 4.617188 -14.539062 4.789062 -14.5 4.960938 -14.519531 C 5.167969 -14.519531 5.453125 -14.445312 5.472656 -14.765625 C 5.488281 -15.03125 5.453125 -15.316406 5.148438 -15.449219 C 5.054688 -15.484375 4.960938 -15.503906 4.863281 -15.523438 C 3.878906 -15.597656 2.878906 -15.695312 1.894531 -15.75 C 1.722656 -15.769531 1.550781 -15.695312 1.402344 -15.636719 C 1.171875 -15.542969 0.910156 -15.464844 0.945312 -15.144531 C 0.984375 -14.859375 1.230469 -14.765625 1.476562 -14.710938 C 1.742188 -14.671875 2.007812 -14.652344 2.273438 -14.613281 C 2.765625 -14.558594 2.839844 -14.480469 2.894531 -13.972656 L 2.894531 -13.609375 C 2.914062 -9.671875 2.6875 -5.734375 2.933594 -1.78125 C 2.953125 -1.496094 3.027344 -1.191406 2.839844 -0.925781 C 2.6875 -0.699219 2.386719 -0.8125 2.15625 -0.757812 C 2.121094 -0.738281 2.0625 -0.738281 2.027344 -0.699219 C 1.761719 -0.566406 1.496094 -0.398438 1.570312 -0.0390625 C 1.664062 0.320312 1.96875 0.359375 2.273438 0.304688 Z M 2.273438 0.304688 "/></g></g></g><g fill="#1e1e1e" fill-opacity="1"><g transform="translate(59.847289, 64.636437)"><g><path d="M 1.476562 -0.113281 C 1.628906 -0.09375 1.761719 -0.171875 1.835938 -0.304688 C 1.910156 -0.433594 1.96875 -0.566406 1.988281 -0.699219 C 2.101562 -1.742188 2.234375 -2.78125 2.308594 -3.824219 C 2.367188 -4.601562 2.308594 -5.375 2.175781 -6.152344 C 2.082031 -6.851562 2.15625 -6.929688 2.800781 -7.195312 C 3.105469 -7.324219 3.425781 -7.457031 3.75 -7.570312 C 4.636719 -7.914062 5.527344 -8.273438 6.113281 -9.085938 C 6.191406 -9.179688 6.285156 -9.257812 6.378906 -9.332031 C 7.667969 -10.429688 7.933594 -12.34375 7.195312 -13.800781 C 6.644531 -14.9375 5.734375 -15.523438 4.503906 -15.65625 C 3.863281 -15.730469 3.199219 -15.75 2.535156 -15.789062 C 2.007812 -15.808594 1.550781 -15.5625 1.15625 -15.203125 C 0.8125 -14.917969 1.003906 -14.539062 1.003906 -14.179688 C 1.023438 -12.96875 1.230469 -11.757812 1.023438 -10.542969 C 0.945312 -10.203125 0.964844 -9.84375 1.023438 -9.523438 C 1.097656 -9.03125 1.097656 -8.539062 1.097656 -8.0625 C 1.078125 -7.042969 1.078125 -6.019531 1.058594 -4.996094 L 1.097656 -4.996094 C 1.078125 -3.730469 1.078125 -2.460938 1.058594 -1.191406 C 1.058594 -0.925781 1.078125 -0.664062 1.171875 -0.398438 C 1.210938 -0.246094 1.304688 -0.132812 1.476562 -0.113281 Z M 2.613281 -8.160156 C 2.273438 -8.0625 2.175781 -8.160156 2.121094 -8.441406 C 2.101562 -8.539062 2.0625 -8.632812 2.082031 -8.726562 C 2.121094 -9.824219 1.875 -10.921875 1.949219 -12.039062 C 1.875 -12.777344 2.0625 -13.515625 2.082031 -14.273438 C 2.082031 -14.613281 2.253906 -14.839844 2.59375 -14.859375 C 3.539062 -14.917969 4.503906 -14.859375 5.375 -14.445312 C 6.832031 -13.726562 7.382812 -11.378906 5.8125 -9.976562 C 4.882812 -9.144531 3.878906 -8.441406 2.613281 -8.160156 Z M 2.613281 -8.160156 "/></g></g></g></svg>