<svg xmlns="http://www.w3.org/2000/svg" xmlns:xlink="http://www.w3.org/1999/xlink" width="50" zoomAndPan="magnify" viewBox="0 0 37.5 37.499999" height="50" preserveAspectRatio="xMidYMid meet" version="1.0"><defs><g/><clipPath id="1821036c9d"><path d="M 3 2.511719 L 19 2.511719 L 19 34.761719 L 3 34.761719 Z M 3 2.511719 " clip-rule="nonzero"/></clipPath></defs><g clip-path="url(#1821036c9d)"><path fill="#ffffff" d="M 8.6875 26.054688 C 10.167969 27.53125 13.816406 29.15625 14.601562 29.164062 C 14.601562 29.164062 15.109375 29.535156 15.300781 30.015625 C 15.300781 30.015625 15.859375 31.183594 15.683594 31.511719 C 15.683594 31.511719 15.300781 32.242188 15.300781 32.382812 C 15.300781 32.382812 15.332031 33.128906 16.367188 32.84375 C 16.367188 32.84375 17.566406 31.769531 17.601562 31.121094 C 17.601562 31.121094 17.371094 30.480469 18.0625 30.015625 C 18.0625 30.015625 19.5 28.328125 18.191406 28.15625 C 18.191406 28.15625 16.597656 28.238281 16.007812 27.777344 C 16.007812 27.777344 10.609375 23.695312 10.5 22.757812 C 10.5 22.757812 10.414062 22.191406 11.195312 21.417969 C 11.316406 21.25 11.277344 22.257812 11.492188 21.957031 C 11.492188 21.957031 11.277344 22.855469 11.789062 22.40625 C 11.789062 22.40625 12.453125 22.496094 12.683594 21.957031 C 12.683594 21.957031 12.867188 22.03125 12.964844 21.800781 C 12.964844 21.800781 13.242188 21.125 12.964844 20.355469 C 12.964844 20.355469 12.816406 18.5 12.964844 18.054688 C 12.964844 18.054688 13.128906 17.664062 13.144531 17.414062 C 13.144531 17.414062 14.132812 17.316406 14.496094 16.828125 C 14.589844 16.695312 14.742188 16.617188 14.902344 16.609375 C 15.355469 16.59375 16.175781 16.441406 16.210938 15.609375 C 16.210938 15.609375 16.210938 15.1875 16.292969 14.96875 C 16.375 14.753906 16.425781 14.53125 16.445312 14.300781 C 16.449219 14.265625 16.453125 14.226562 16.453125 14.1875 C 16.464844 14 16.445312 13.8125 16.394531 13.632812 C 16.3125 13.335938 16.171875 12.835938 16.105469 12.535156 C 16.105469 12.535156 16.078125 11.289062 15.882812 10.894531 C 15.882812 10.894531 15.59375 10.296875 15.800781 9.925781 C 15.800781 9.925781 16.410156 8.273438 16.105469 7.675781 C 15.800781 7.078125 15.914062 6.960938 15.800781 6.753906 C 15.800781 6.753906 14.519531 5.265625 12.519531 5.839844 C 12.519531 5.839844 11.867188 6.199219 11.347656 6.300781 C 11.105469 6.347656 10.851562 6.265625 10.6875 6.078125 C 10.484375 5.859375 10.140625 5.503906 9.839844 5.347656 C 9.839844 5.347656 9.402344 5.222656 9.222656 5.347656 C 9.222656 5.347656 9.691406 3.953125 9 3.644531 C 9 3.644531 9.160156 3.269531 8.734375 2.90625 C 8.429688 2.648438 8.019531 2.546875 7.632812 2.640625 C 6.988281 2.789062 5.714844 3.019531 5.101562 2.675781 C 5.101562 2.675781 4.855469 3.5 5.570312 3.785156 C 5.570312 3.785156 5.121094 4.535156 5.347656 4.789062 C 5.347656 4.789062 5.105469 5.34375 4.902344 5.453125 C 4.84375 5.484375 4.816406 5.554688 4.835938 5.617188 C 4.855469 5.679688 4.910156 5.734375 5.050781 5.734375 C 5.050781 5.734375 5.253906 5.90625 5.152344 5.980469 C 5.152344 5.980469 4.96875 6.1875 5.164062 6.238281 C 5.164062 6.238281 4.984375 6.464844 5.164062 6.546875 C 5.164062 6.546875 4.941406 6.976562 5.246094 7.078125 C 5.246094 7.078125 6.011719 7.113281 6.144531 7.320312 L 6.320312 7.542969 C 6.320312 7.542969 5.988281 7.816406 5.988281 8.140625 L 5.988281 8.464844 C 5.988281 8.464844 4.894531 8.136719 5.304688 9.925781 C 5.304688 9.925781 5.511719 10.457031 5.363281 10.851562 C 5.355469 10.882812 5.34375 10.914062 5.335938 10.945312 C 5.25 11.351562 4.644531 14.207031 4.839844 14.742188 C 4.839844 14.742188 3.644531 17.046875 3.957031 17.414062 C 3.957031 17.414062 3.96875 18.230469 3.644531 18.496094 C 3.644531 18.496094 3.414062 18.679688 3.257812 18.871094 C 3.164062 18.984375 3.113281 19.128906 3.121094 19.277344 C 3.125 19.40625 3.132812 19.59375 3.140625 19.726562 C 3.144531 19.835938 3.183594 19.941406 3.253906 20.027344 C 3.5 20.316406 4.082031 20.960938 4.113281 20.589844 C 4.113281 20.589844 5.011719 20.820312 4.839844 20.355469 C 4.839844 20.355469 4.082031 20.050781 4.289062 19.589844 C 4.289062 19.589844 4.929688 18.863281 4.703125 18.605469 C 4.703125 18.605469 5.257812 18.222656 5.304688 17.730469 C 5.304688 17.730469 5.789062 17.191406 5.96875 17.261719 C 5.980469 17.269531 5.988281 17.28125 5.992188 17.292969 C 6.019531 17.402344 6.183594 18.054688 6.320312 18.054688 C 6.320312 18.054688 6.199219 19.433594 6.226562 20.246094 C 6.238281 20.695312 6.160156 21.144531 5.992188 21.558594 C 5.335938 23.183594 4.019531 27.089844 5.304688 29.8125 C 5.304688 29.8125 5.859375 31.398438 5.714844 31.839844 C 5.570312 32.28125 5.203125 32.660156 4.839844 32.84375 C 4.839844 32.84375 3.828125 33.335938 3.472656 33.46875 C 3.472656 33.46875 3 34.050781 3.644531 34.296875 C 4.289062 34.546875 5.828125 34.148438 6.320312 34.296875 C 6.320312 34.296875 8.125 34.753906 8.042969 33.992188 C 8.042969 33.992188 7.476562 31.664062 7.648438 30.925781 C 7.648438 30.925781 7.910156 28.707031 7.648438 27.777344 C 7.648438 27.777344 8.28125 26.96875 8.6875 26.054688 Z M 8.6875 26.054688 " fill-opacity="1" fill-rule="evenodd"/><path fill="#ffffff" d="M 5.101562 5.921875 C 5.097656 5.921875 5.097656 5.925781 5.09375 5.929688 C 5.09375 5.929688 5.054688 5.972656 5.027344 6.027344 C 5.007812 6.070312 4.992188 6.121094 5 6.164062 C 5.003906 6.203125 5.019531 6.238281 5.054688 6.269531 C 5.03125 6.316406 5.007812 6.378906 5.007812 6.4375 C 5.011719 6.488281 5.027344 6.539062 5.070312 6.578125 C 5.039062 6.65625 4.992188 6.796875 5.015625 6.917969 C 5.035156 7.019531 5.089844 7.109375 5.222656 7.152344 C 5.226562 7.152344 5.234375 7.15625 5.242188 7.15625 C 5.242188 7.15625 5.539062 7.167969 5.792969 7.230469 C 5.867188 7.25 5.9375 7.269531 5.992188 7.296875 C 6.03125 7.316406 6.0625 7.335938 6.078125 7.363281 C 6.082031 7.367188 6.082031 7.367188 6.085938 7.371094 L 6.214844 7.535156 C 6.15625 7.59375 6.058594 7.703125 5.992188 7.835938 C 5.945312 7.929688 5.914062 8.03125 5.914062 8.140625 L 5.914062 8.371094 C 5.75 8.351562 5.414062 8.355469 5.238281 8.703125 C 5.128906 8.925781 5.085938 9.304688 5.230469 9.941406 C 5.230469 9.945312 5.234375 9.949219 5.234375 9.953125 C 5.234375 9.953125 5.3125 10.152344 5.335938 10.390625 C 5.351562 10.53125 5.347656 10.6875 5.296875 10.824219 C 5.289062 10.84375 5.285156 10.859375 5.277344 10.875 C 5.273438 10.894531 5.269531 10.910156 5.265625 10.929688 C 5.207031 11.199219 4.921875 12.550781 4.792969 13.585938 C 4.730469 14.097656 4.707031 14.535156 4.761719 14.738281 C 4.675781 14.90625 4.207031 15.835938 3.972656 16.558594 C 3.898438 16.789062 3.847656 17 3.835938 17.164062 C 3.832031 17.28125 3.847656 17.375 3.886719 17.4375 C 3.886719 17.519531 3.878906 17.816406 3.804688 18.082031 C 3.761719 18.226562 3.699219 18.363281 3.601562 18.441406 C 3.59375 18.449219 3.503906 18.523438 3.394531 18.625 C 3.332031 18.6875 3.261719 18.757812 3.203125 18.828125 C 3.152344 18.890625 3.113281 18.964844 3.085938 19.039062 C 3.0625 19.117188 3.050781 19.195312 3.054688 19.277344 C 3.054688 19.277344 3.074219 19.730469 3.074219 19.730469 C 3.074219 19.792969 3.089844 19.855469 3.109375 19.910156 C 3.132812 19.96875 3.164062 20.023438 3.203125 20.070312 C 3.378906 20.277344 3.71875 20.648438 3.921875 20.742188 C 3.992188 20.773438 4.050781 20.773438 4.09375 20.75 C 4.121094 20.734375 4.148438 20.710938 4.164062 20.667969 C 4.238281 20.683594 4.375 20.707031 4.507812 20.710938 C 4.617188 20.714844 4.722656 20.703125 4.800781 20.664062 C 4.851562 20.636719 4.886719 20.601562 4.910156 20.550781 C 4.929688 20.496094 4.933594 20.425781 4.898438 20.335938 C 4.890625 20.316406 4.878906 20.304688 4.863281 20.296875 C 4.863281 20.296875 4.539062 20.167969 4.386719 19.953125 C 4.324219 19.859375 4.292969 19.75 4.34375 19.625 C 4.390625 19.570312 4.671875 19.234375 4.773438 18.949219 C 4.820312 18.824219 4.828125 18.710938 4.785156 18.621094 C 4.875 18.550781 5.066406 18.386719 5.207031 18.167969 C 5.285156 18.046875 5.34375 17.90625 5.363281 17.753906 C 5.40625 17.707031 5.554688 17.550781 5.707031 17.433594 C 5.761719 17.394531 5.8125 17.355469 5.863281 17.335938 C 5.890625 17.324219 5.917969 17.3125 5.9375 17.316406 C 5.960938 17.414062 6.054688 17.773438 6.15625 17.964844 C 6.179688 18.015625 6.207031 18.054688 6.234375 18.078125 C 6.242188 18.085938 6.25 18.089844 6.257812 18.09375 C 6.242188 18.253906 6.199219 18.800781 6.179688 19.367188 C 6.167969 19.675781 6.160156 19.988281 6.167969 20.246094 C 6.175781 20.46875 6.160156 20.6875 6.121094 20.90625 C 6.082031 21.121094 6.023438 21.335938 5.941406 21.539062 C 5.527344 22.566406 4.851562 24.507812 4.730469 26.484375 C 4.664062 27.644531 4.785156 28.820312 5.261719 29.828125 C 5.277344 29.871094 5.484375 30.46875 5.609375 31.023438 C 5.683594 31.355469 5.726562 31.667969 5.675781 31.824219 C 5.609375 32.035156 5.488281 32.230469 5.339844 32.398438 C 5.1875 32.574219 5.003906 32.714844 4.820312 32.808594 C 4.808594 32.8125 4.394531 33.015625 4.007812 33.195312 C 3.792969 33.292969 3.585938 33.382812 3.457031 33.429688 C 3.453125 33.433594 3.445312 33.4375 3.441406 33.441406 C 3.441406 33.441406 3.238281 33.699219 3.273438 33.949219 C 3.289062 34.09375 3.382812 34.238281 3.632812 34.332031 C 3.777344 34.386719 3.964844 34.414062 4.171875 34.417969 C 4.90625 34.433594 5.925781 34.214844 6.308594 34.328125 C 6.308594 34.328125 6.308594 34.332031 6.3125 34.332031 C 6.3125 34.332031 7.1875 34.550781 7.699219 34.429688 C 7.9375 34.371094 8.101562 34.238281 8.074219 33.988281 C 8.070312 33.984375 8.070312 33.984375 8.070312 33.984375 C 8.070312 33.984375 7.839844 33.035156 7.714844 32.15625 C 7.648438 31.664062 7.613281 31.195312 7.671875 30.929688 C 7.671875 30.929688 7.785156 29.957031 7.789062 29.03125 C 7.789062 28.558594 7.757812 28.097656 7.671875 27.78125 C 7.714844 27.726562 7.960938 27.402344 8.230469 26.953125 C 8.386719 26.695312 8.554688 26.398438 8.695312 26.085938 C 9.347656 26.730469 10.410156 27.40625 11.464844 27.960938 C 12.8125 28.667969 14.144531 29.179688 14.59375 29.191406 C 14.628906 29.21875 14.808594 29.359375 14.984375 29.5625 C 15.09375 29.695312 15.203125 29.855469 15.273438 30.027344 C 15.273438 30.027344 15.492188 30.484375 15.609375 30.902344 C 15.679688 31.148438 15.722656 31.378906 15.660156 31.496094 C 15.65625 31.5 15.476562 31.839844 15.363281 32.101562 C 15.304688 32.226562 15.265625 32.335938 15.265625 32.382812 C 15.265625 32.382812 15.265625 32.386719 15.265625 32.386719 C 15.265625 32.386719 15.28125 32.695312 15.5625 32.855469 C 15.722656 32.945312 15.976562 32.988281 16.375 32.878906 C 16.382812 32.875 16.386719 32.875 16.390625 32.871094 C 16.390625 32.871094 16.902344 32.414062 17.265625 31.914062 C 17.46875 31.640625 17.625 31.355469 17.636719 31.121094 C 17.636719 31.117188 17.636719 31.113281 17.636719 31.109375 C 17.636719 31.109375 17.535156 30.828125 17.675781 30.507812 C 17.746094 30.351562 17.867188 30.191406 18.082031 30.046875 C 18.085938 30.046875 18.085938 30.042969 18.089844 30.039062 C 18.089844 30.039062 18.691406 29.335938 18.773438 28.785156 C 18.792969 28.636719 18.777344 28.5 18.710938 28.386719 C 18.628906 28.253906 18.472656 28.152344 18.199219 28.113281 C 18.195312 28.113281 18.191406 28.113281 18.191406 28.113281 C 18.191406 28.113281 17.492188 28.148438 16.851562 28.039062 C 16.53125 27.984375 16.226562 27.894531 16.03125 27.742188 C 16.03125 27.742188 13.613281 25.90625 11.984375 24.414062 C 11.445312 23.921875 10.992188 23.464844 10.746094 23.125 C 10.632812 22.972656 10.5625 22.847656 10.550781 22.75 C 10.550781 22.75 10.523438 22.53125 10.691406 22.183594 C 10.785156 21.984375 10.945312 21.746094 11.207031 21.484375 C 11.214844 21.503906 11.21875 21.527344 11.222656 21.550781 C 11.25 21.699219 11.273438 21.914062 11.324219 22.003906 C 11.347656 22.046875 11.382812 22.066406 11.414062 22.066406 C 11.40625 22.128906 11.394531 22.203125 11.394531 22.277344 C 11.390625 22.371094 11.402344 22.464844 11.4375 22.519531 C 11.476562 22.578125 11.535156 22.605469 11.628906 22.574219 C 11.675781 22.558594 11.734375 22.527344 11.804688 22.464844 C 11.882812 22.472656 12.113281 22.480469 12.335938 22.382812 C 12.484375 22.320312 12.625 22.207031 12.714844 22.023438 C 12.757812 22.03125 12.824219 22.027344 12.886719 21.988281 C 12.933594 21.957031 12.980469 21.910156 13.015625 21.820312 C 13.015625 21.820312 13.144531 21.515625 13.144531 21.078125 C 13.148438 20.859375 13.117188 20.605469 13.023438 20.34375 C 13.015625 20.265625 12.964844 19.585938 12.957031 18.972656 C 12.957031 18.59375 12.96875 18.242188 13.019531 18.078125 C 13.03125 18.054688 13.101562 17.878906 13.152344 17.691406 C 13.175781 17.617188 13.191406 17.539062 13.203125 17.46875 C 13.332031 17.453125 13.703125 17.390625 14.039062 17.242188 C 14.238281 17.152344 14.425781 17.027344 14.542969 16.867188 C 14.585938 16.808594 14.640625 16.761719 14.703125 16.730469 C 14.765625 16.695312 14.832031 16.679688 14.902344 16.675781 C 14.902344 16.675781 14.90625 16.675781 14.90625 16.675781 C 15.207031 16.664062 15.667969 16.589844 15.964844 16.316406 C 16.140625 16.15625 16.261719 15.933594 16.277344 15.613281 C 16.277344 15.613281 16.277344 15.609375 16.277344 15.609375 C 16.277344 15.609375 16.277344 15.417969 16.300781 15.230469 C 16.3125 15.144531 16.332031 15.058594 16.355469 14.992188 C 16.398438 14.882812 16.429688 14.769531 16.457031 14.65625 C 16.484375 14.542969 16.5 14.425781 16.511719 14.308594 L 16.519531 14.191406 C 16.527344 14.09375 16.523438 13.996094 16.515625 13.898438 C 16.503906 13.800781 16.484375 13.707031 16.460938 13.613281 C 16.410156 13.4375 16.339844 13.191406 16.277344 12.957031 C 16.238281 12.800781 16.199219 12.648438 16.171875 12.527344 C 16.171875 12.464844 16.15625 11.976562 16.101562 11.53125 C 16.066406 11.261719 16.015625 11.007812 15.945312 10.863281 C 15.941406 10.855469 15.816406 10.589844 15.796875 10.3125 C 15.789062 10.1875 15.804688 10.0625 15.859375 9.960938 C 15.863281 9.957031 15.863281 9.953125 15.867188 9.949219 C 15.867188 9.949219 16.121094 9.253906 16.222656 8.597656 C 16.277344 8.222656 16.28125 7.863281 16.167969 7.644531 C 16.097656 7.5 16.046875 7.386719 16.015625 7.292969 C 15.964844 7.144531 15.949219 7.046875 15.9375 6.964844 C 15.921875 6.875 15.910156 6.804688 15.863281 6.71875 C 15.859375 6.714844 15.859375 6.710938 15.855469 6.707031 C 15.855469 6.707031 15.285156 6.042969 14.304688 5.757812 C 13.804688 5.613281 13.195312 5.570312 12.5 5.769531 C 12.496094 5.769531 12.488281 5.769531 12.484375 5.773438 C 12.484375 5.773438 12.167969 5.945312 11.804688 6.085938 C 11.648438 6.144531 11.484375 6.195312 11.332031 6.226562 C 11.222656 6.25 11.113281 6.238281 11.011719 6.207031 C 10.910156 6.171875 10.816406 6.113281 10.742188 6.027344 C 10.621094 5.894531 10.441406 5.707031 10.253906 5.546875 C 10.128906 5.441406 9.996094 5.34375 9.875 5.277344 C 9.871094 5.277344 9.867188 5.273438 9.859375 5.273438 C 9.859375 5.273438 9.660156 5.214844 9.464844 5.214844 C 9.421875 5.214844 9.378906 5.21875 9.339844 5.222656 C 9.394531 5.011719 9.484375 4.601562 9.445312 4.242188 C 9.414062 3.972656 9.3125 3.734375 9.09375 3.605469 C 9.109375 3.523438 9.125 3.378906 9.054688 3.207031 C 9.007812 3.09375 8.925781 2.972656 8.785156 2.847656 C 8.621094 2.710938 8.433594 2.613281 8.234375 2.566406 C 8.03125 2.515625 7.820312 2.515625 7.617188 2.5625 C 7.242188 2.648438 6.648438 2.765625 6.101562 2.777344 C 5.730469 2.785156 5.378906 2.746094 5.136719 2.609375 C 5.117188 2.597656 5.09375 2.597656 5.070312 2.605469 C 5.050781 2.613281 5.03125 2.632812 5.027344 2.65625 C 5.027344 2.65625 4.917969 3.019531 5.042969 3.359375 C 5.109375 3.535156 5.230469 3.707031 5.460938 3.820312 C 5.390625 3.953125 5.253906 4.230469 5.21875 4.46875 C 5.195312 4.597656 5.207031 4.714844 5.257812 4.800781 C 5.222656 4.875 5.144531 5.035156 5.054688 5.175781 C 4.992188 5.265625 4.929688 5.351562 4.867188 5.382812 C 4.820312 5.410156 4.785156 5.449219 4.769531 5.492188 C 4.75 5.539062 4.746094 5.59375 4.761719 5.640625 C 4.777344 5.6875 4.804688 5.730469 4.855469 5.765625 C 4.894531 5.789062 4.945312 5.808594 5.019531 5.8125 C 5.035156 5.828125 5.054688 5.847656 5.070312 5.871094 C 5.082031 5.882812 5.089844 5.894531 5.097656 5.90625 C 5.097656 5.910156 5.101562 5.917969 5.101562 5.921875 Z M 5.988281 8.542969 C 5.984375 8.542969 5.964844 8.546875 5.945312 8.53125 C 5.855469 8.511719 5.527344 8.460938 5.375 8.769531 C 5.269531 8.976562 5.242188 9.320312 5.375 9.902344 C 5.390625 9.945312 5.480469 10.195312 5.492188 10.476562 C 5.496094 10.609375 5.480469 10.75 5.433594 10.878906 L 5.410156 10.960938 C 5.351562 11.230469 5.0625 12.574219 4.933594 13.605469 C 4.871094 14.113281 4.839844 14.542969 4.90625 14.71875 C 4.914062 14.738281 4.910156 14.757812 4.902344 14.777344 C 4.902344 14.777344 4.363281 15.8125 4.105469 16.601562 C 4.035156 16.820312 3.984375 17.019531 3.976562 17.171875 C 3.96875 17.257812 3.976562 17.328125 4.007812 17.367188 C 4.019531 17.378906 4.027344 17.394531 4.027344 17.414062 C 4.027344 17.414062 4.03125 17.789062 3.933594 18.121094 C 3.882812 18.292969 3.804688 18.453125 3.6875 18.550781 C 3.6875 18.550781 3.59375 18.625 3.488281 18.726562 C 3.429688 18.78125 3.363281 18.847656 3.308594 18.914062 C 3.265625 18.964844 3.234375 19.023438 3.214844 19.082031 C 3.195312 19.144531 3.183594 19.207031 3.1875 19.273438 L 3.207031 19.726562 C 3.207031 19.773438 3.21875 19.820312 3.234375 19.863281 C 3.25 19.90625 3.273438 19.945312 3.304688 19.984375 C 3.421875 20.125 3.621094 20.347656 3.792969 20.496094 C 3.859375 20.550781 3.921875 20.597656 3.976562 20.621094 C 3.988281 20.628906 4.003906 20.632812 4.015625 20.632812 C 4.023438 20.636719 4.027344 20.636719 4.03125 20.632812 C 4.035156 20.632812 4.039062 20.628906 4.039062 20.621094 C 4.042969 20.613281 4.046875 20.597656 4.046875 20.582031 C 4.050781 20.5625 4.058594 20.546875 4.074219 20.535156 C 4.089844 20.523438 4.109375 20.519531 4.128906 20.523438 C 4.128906 20.523438 4.457031 20.609375 4.667969 20.570312 C 4.71875 20.5625 4.765625 20.546875 4.785156 20.511719 C 4.800781 20.484375 4.800781 20.449219 4.789062 20.40625 C 4.699219 20.367188 4.425781 20.230469 4.285156 20.027344 C 4.195312 19.894531 4.152344 19.738281 4.234375 19.5625 C 4.234375 19.558594 4.238281 19.550781 4.242188 19.546875 C 4.242188 19.546875 4.484375 19.273438 4.613281 19.003906 C 4.65625 18.921875 4.683594 18.84375 4.691406 18.769531 C 4.691406 18.722656 4.6875 18.679688 4.65625 18.648438 C 4.644531 18.632812 4.640625 18.617188 4.640625 18.597656 C 4.644531 18.582031 4.652344 18.5625 4.667969 18.554688 C 4.667969 18.554688 4.929688 18.375 5.101562 18.101562 C 5.175781 17.992188 5.230469 17.863281 5.242188 17.722656 C 5.242188 17.710938 5.25 17.699219 5.257812 17.6875 C 5.257812 17.6875 5.496094 17.425781 5.703125 17.285156 C 5.769531 17.246094 5.828125 17.214844 5.878906 17.203125 C 5.921875 17.191406 5.960938 17.195312 5.988281 17.207031 C 5.992188 17.207031 5.992188 17.207031 5.992188 17.207031 C 6.007812 17.214844 6.019531 17.222656 6.03125 17.234375 C 6.039062 17.246094 6.046875 17.261719 6.050781 17.277344 C 6.066406 17.339844 6.125 17.570312 6.195312 17.757812 C 6.226562 17.839844 6.257812 17.914062 6.289062 17.960938 C 6.296875 17.972656 6.304688 17.984375 6.3125 17.988281 C 6.316406 17.992188 6.320312 17.996094 6.320312 17.996094 C 6.335938 17.996094 6.351562 18.003906 6.363281 18.015625 C 6.375 18.027344 6.378906 18.042969 6.378906 18.0625 C 6.378906 18.0625 6.320312 18.703125 6.292969 19.371094 C 6.28125 19.679688 6.273438 19.988281 6.28125 20.242188 C 6.289062 20.472656 6.273438 20.703125 6.230469 20.925781 C 6.191406 21.148438 6.128906 21.371094 6.042969 21.582031 C 5.628906 22.601562 4.953125 24.527344 4.828125 26.492188 C 4.757812 27.636719 4.875 28.792969 5.34375 29.792969 C 5.34375 29.792969 5.34375 29.792969 5.34375 29.796875 C 5.34375 29.796875 5.621094 30.585938 5.734375 31.210938 C 5.78125 31.480469 5.800781 31.71875 5.753906 31.851562 C 5.683594 32.070312 5.554688 32.277344 5.402344 32.453125 C 5.238281 32.636719 5.046875 32.785156 4.855469 32.878906 C 4.855469 32.878906 4.433594 33.085938 4.039062 33.265625 C 3.828125 33.363281 3.621094 33.453125 3.496094 33.5 C 3.460938 33.542969 3.320312 33.742188 3.34375 33.9375 C 3.363281 34.0625 3.445312 34.179688 3.65625 34.265625 C 3.796875 34.316406 3.972656 34.339844 4.175781 34.34375 C 4.914062 34.363281 5.941406 34.148438 6.328125 34.265625 C 6.359375 34.273438 7.195312 34.484375 7.683594 34.367188 C 7.890625 34.320312 8.035156 34.210938 8.011719 33.996094 C 8 33.945312 7.78125 33.023438 7.660156 32.164062 C 7.59375 31.667969 7.558594 31.191406 7.621094 30.921875 C 7.628906 30.878906 7.738281 29.933594 7.742188 29.03125 C 7.742188 28.558594 7.714844 28.097656 7.628906 27.78125 C 7.625 27.777344 7.628906 27.769531 7.632812 27.761719 C 7.632812 27.761719 7.898438 27.421875 8.199219 26.933594 C 8.359375 26.671875 8.527344 26.363281 8.671875 26.046875 C 8.675781 26.042969 8.679688 26.039062 8.683594 26.035156 C 8.691406 26.035156 8.695312 26.035156 8.699219 26.039062 C 9.351562 26.6875 10.425781 27.367188 11.488281 27.921875 C 12.832031 28.625 14.164062 29.132812 14.601562 29.136719 C 14.609375 29.136719 14.613281 29.136719 14.617188 29.140625 C 14.617188 29.140625 14.824219 29.292969 15.027344 29.527344 C 15.140625 29.664062 15.253906 29.824219 15.324219 30.003906 C 15.335938 30.027344 15.605469 30.59375 15.707031 31.039062 C 15.753906 31.242188 15.765625 31.421875 15.710938 31.527344 C 15.710938 31.527344 15.535156 31.867188 15.417969 32.125 C 15.371094 32.242188 15.332031 32.339844 15.332031 32.382812 C 15.332031 32.398438 15.351562 32.664062 15.59375 32.796875 C 15.746094 32.882812 15.980469 32.914062 16.351562 32.8125 C 16.40625 32.761719 16.871094 32.335938 17.210938 31.871094 C 17.398438 31.613281 17.550781 31.347656 17.5625 31.125 C 17.546875 31.078125 17.46875 30.792969 17.609375 30.476562 C 17.679688 30.3125 17.808594 30.140625 18.035156 29.988281 C 18.082031 29.929688 18.621094 29.285156 18.695312 28.773438 C 18.710938 28.644531 18.703125 28.527344 18.644531 28.429688 C 18.570312 28.3125 18.429688 28.226562 18.191406 28.195312 C 18.136719 28.199219 17.460938 28.226562 16.839844 28.121094 C 16.503906 28.066406 16.183594 27.96875 15.980469 27.8125 C 15.960938 27.796875 13.542969 25.972656 11.917969 24.488281 C 11.371094 23.992188 10.910156 23.53125 10.660156 23.1875 C 10.535156 23.015625 10.460938 22.871094 10.449219 22.765625 C 10.445312 22.75 10.414062 22.511719 10.59375 22.136719 C 10.699219 21.921875 10.867188 21.664062 11.15625 21.382812 C 11.175781 21.351562 11.199219 21.34375 11.21875 21.34375 C 11.246094 21.34375 11.28125 21.359375 11.300781 21.414062 C 11.335938 21.503906 11.355469 21.765625 11.402344 21.90625 C 11.40625 21.921875 11.417969 21.941406 11.425781 21.953125 C 11.429688 21.945312 11.441406 21.9375 11.449219 21.925781 C 11.464844 21.902344 11.492188 21.894531 11.515625 21.90625 C 11.539062 21.917969 11.550781 21.945312 11.546875 21.96875 C 11.546875 21.96875 11.507812 22.132812 11.503906 22.277344 C 11.5 22.347656 11.503906 22.417969 11.53125 22.457031 C 11.542969 22.476562 11.5625 22.480469 11.59375 22.46875 C 11.632812 22.457031 11.6875 22.421875 11.75 22.363281 C 11.765625 22.351562 11.78125 22.347656 11.796875 22.351562 C 11.796875 22.351562 12.050781 22.382812 12.292969 22.277344 C 12.425781 22.21875 12.554688 22.113281 12.632812 21.933594 C 12.644531 21.90625 12.675781 21.890625 12.707031 21.902344 C 12.707031 21.902344 12.765625 21.925781 12.824219 21.890625 C 12.855469 21.871094 12.886719 21.835938 12.910156 21.777344 C 12.914062 21.765625 13.03125 21.480469 13.03125 21.078125 C 13.03125 20.867188 13 20.628906 12.910156 20.378906 C 12.90625 20.371094 12.90625 20.367188 12.90625 20.363281 C 12.90625 20.363281 12.832031 19.445312 12.839844 18.742188 C 12.839844 18.4375 12.859375 18.171875 12.90625 18.035156 C 12.90625 18.035156 12.90625 18.03125 12.90625 18.03125 C 12.90625 18.03125 12.984375 17.851562 13.035156 17.660156 C 13.058594 17.574219 13.078125 17.484375 13.082031 17.410156 C 13.085938 17.378906 13.109375 17.355469 13.140625 17.351562 C 13.140625 17.351562 13.589844 17.304688 13.988281 17.125 C 14.167969 17.042969 14.335938 16.9375 14.445312 16.789062 C 14.496094 16.714844 14.566406 16.65625 14.644531 16.617188 C 14.722656 16.574219 14.808594 16.550781 14.898438 16.546875 C 15.136719 16.535156 15.476562 16.492188 15.742188 16.324219 C 15.960938 16.1875 16.132812 15.964844 16.144531 15.609375 C 16.144531 15.589844 16.148438 15.402344 16.171875 15.210938 C 16.183594 15.117188 16.203125 15.019531 16.230469 14.945312 C 16.273438 14.839844 16.304688 14.734375 16.328125 14.625 C 16.351562 14.515625 16.371094 14.40625 16.378906 14.296875 L 16.386719 14.183594 C 16.394531 14.09375 16.390625 14.003906 16.382812 13.914062 C 16.375 13.824219 16.355469 13.738281 16.332031 13.648438 C 16.28125 13.476562 16.210938 13.226562 16.148438 12.992188 C 16.105469 12.832031 16.066406 12.675781 16.039062 12.550781 C 16.039062 12.546875 16.035156 12.542969 16.035156 12.539062 C 16.035156 12.539062 16.027344 12.019531 15.964844 11.550781 C 15.933594 11.300781 15.886719 11.0625 15.820312 10.925781 C 15.820312 10.925781 15.679688 10.628906 15.660156 10.320312 C 15.648438 10.171875 15.667969 10.023438 15.738281 9.894531 C 15.757812 9.835938 15.992188 9.1875 16.082031 8.574219 C 16.132812 8.238281 16.144531 7.910156 16.042969 7.707031 C 15.964844 7.5625 15.914062 7.441406 15.878906 7.34375 C 15.824219 7.183594 15.808594 7.074219 15.796875 6.988281 C 15.785156 6.917969 15.777344 6.859375 15.742188 6.796875 C 15.6875 6.734375 15.148438 6.15625 14.265625 5.902344 C 13.789062 5.761719 13.207031 5.722656 12.546875 5.910156 C 12.496094 5.9375 12.199219 6.09375 11.855469 6.226562 C 11.695312 6.289062 11.519531 6.34375 11.363281 6.375 C 11.226562 6.402344 11.089844 6.390625 10.964844 6.347656 C 10.839844 6.308594 10.722656 6.234375 10.632812 6.128906 C 10.511719 6 10.339844 5.820312 10.15625 5.664062 C 10.042969 5.566406 9.925781 5.476562 9.8125 5.417969 C 9.777344 5.40625 9.617188 5.367188 9.464844 5.367188 C 9.390625 5.367188 9.316406 5.375 9.265625 5.410156 C 9.238281 5.429688 9.203125 5.425781 9.175781 5.40625 C 9.152344 5.386719 9.140625 5.351562 9.152344 5.320312 C 9.152344 5.320312 9.347656 4.742188 9.292969 4.257812 C 9.265625 4.023438 9.183594 3.8125 8.96875 3.71875 C 8.933594 3.699219 8.914062 3.65625 8.929688 3.617188 C 8.929688 3.617188 8.992188 3.464844 8.914062 3.265625 C 8.875 3.171875 8.804688 3.070312 8.683594 2.964844 C 8.542969 2.84375 8.375 2.761719 8.195312 2.71875 C 8.019531 2.671875 7.832031 2.671875 7.648438 2.714844 C 7.269531 2.804688 6.664062 2.921875 6.105469 2.933594 C 5.75 2.9375 5.410156 2.902344 5.15625 2.789062 C 5.132812 2.90625 5.117188 3.109375 5.1875 3.304688 C 5.246094 3.464844 5.367188 3.621094 5.601562 3.710938 C 5.621094 3.71875 5.636719 3.738281 5.644531 3.757812 C 5.652344 3.78125 5.648438 3.804688 5.636719 3.824219 C 5.636719 3.824219 5.460938 4.117188 5.390625 4.394531 C 5.367188 4.476562 5.355469 4.554688 5.363281 4.625 C 5.367188 4.671875 5.378906 4.710938 5.40625 4.738281 C 5.425781 4.761719 5.429688 4.792969 5.417969 4.824219 C 5.417969 4.824219 5.3125 5.0625 5.183594 5.261719 C 5.105469 5.378906 5.019531 5.480469 4.9375 5.523438 C 4.925781 5.527344 4.914062 5.539062 4.910156 5.550781 C 4.90625 5.566406 4.90625 5.578125 4.910156 5.59375 C 4.914062 5.613281 4.929688 5.628906 4.953125 5.640625 C 4.976562 5.652344 5.007812 5.660156 5.050781 5.660156 C 5.066406 5.660156 5.085938 5.664062 5.097656 5.675781 C 5.097656 5.675781 5.222656 5.785156 5.25 5.878906 C 5.265625 5.9375 5.257812 5.992188 5.203125 6.035156 C 5.191406 6.050781 5.160156 6.09375 5.152344 6.132812 C 5.152344 6.140625 5.148438 6.144531 5.152344 6.148438 C 5.15625 6.15625 5.167969 6.160156 5.183594 6.164062 C 5.210938 6.167969 5.230469 6.1875 5.238281 6.214844 C 5.246094 6.238281 5.242188 6.265625 5.226562 6.285156 C 5.226562 6.285156 5.175781 6.347656 5.164062 6.414062 C 5.160156 6.425781 5.160156 6.441406 5.167969 6.453125 C 5.171875 6.460938 5.183594 6.46875 5.195312 6.476562 C 5.214844 6.484375 5.230469 6.5 5.238281 6.523438 C 5.246094 6.542969 5.242188 6.566406 5.234375 6.582031 C 5.234375 6.582031 5.140625 6.753906 5.167969 6.890625 C 5.175781 6.9375 5.203125 6.980469 5.261719 7 C 5.328125 7.003906 5.671875 7.03125 5.921875 7.105469 C 6.054688 7.148438 6.160156 7.207031 6.203125 7.277344 L 6.378906 7.496094 C 6.402344 7.527344 6.398438 7.574219 6.367188 7.601562 C 6.367188 7.601562 6.246094 7.703125 6.160156 7.847656 C 6.109375 7.933594 6.066406 8.035156 6.066406 8.140625 C 6.066406 8.3125 6.066406 8.394531 6.066406 8.433594 C 6.066406 8.566406 5.988281 8.539062 5.988281 8.539062 Z M 5.988281 8.542969 " fill-opacity="1" fill-rule="evenodd"/></g><g fill="#ffffff" fill-opacity="1"><g transform="translate(17.385771, 13.584821)"><g><path d="M 2.300781 -0.09375 C 2.792969 0.0390625 3.226562 -0.160156 3.453125 -0.605469 C 3.539062 -0.796875 3.644531 -0.976562 3.75 -1.15625 C 4.050781 -1.703125 4.164062 -2.300781 4.097656 -2.914062 C 4.050781 -3.417969 3.796875 -3.71875 3.304688 -3.683594 C 3.160156 -3.671875 3.019531 -3.710938 2.867188 -3.71875 C 2.601562 -3.75 2.414062 -3.625 2.421875 -3.417969 C 2.421875 -3.246094 2.601562 -3.132812 2.867188 -3.152344 C 2.90625 -3.152344 2.945312 -3.152344 2.972656 -3.160156 C 3.09375 -3.191406 3.21875 -3.152344 3.339844 -3.140625 C 3.503906 -3.125 3.570312 -3.027344 3.570312 -2.878906 C 3.597656 -2.195312 3.40625 -1.570312 3.066406 -0.992188 C 2.914062 -0.730469 2.667969 -0.625 2.355469 -0.664062 C 1.929688 -0.71875 1.648438 -0.976562 1.515625 -1.34375 C 1.238281 -2.042969 1.023438 -2.773438 1.03125 -3.472656 C 1.117188 -4.5625 1.136719 -5.140625 1.515625 -5.964844 C 1.648438 -6.246094 1.855469 -6.492188 1.988281 -6.777344 C 2.101562 -7.023438 2.289062 -7.195312 2.480469 -7.363281 C 2.6875 -7.5625 2.90625 -7.554688 3.152344 -7.457031 C 3.398438 -7.363281 3.53125 -7.195312 3.53125 -6.929688 C 3.53125 -6.882812 3.53125 -6.832031 3.539062 -6.785156 C 3.558594 -6.683594 3.605469 -6.597656 3.71875 -6.578125 C 3.832031 -6.570312 3.898438 -6.644531 3.945312 -6.730469 C 3.996094 -6.816406 3.996094 -6.898438 3.996094 -6.984375 C 3.996094 -7.714844 3.113281 -8.253906 2.460938 -7.914062 C 1.855469 -7.589844 1.410156 -7.097656 1.117188 -6.503906 C 0.890625 -6.039062 0.777344 -5.519531 0.652344 -5.007812 C 0.472656 -4.289062 0.445312 -3.570312 0.492188 -2.839844 C 0.53125 -2.207031 0.671875 -1.601562 1.03125 -1.078125 C 1.34375 -0.617188 1.742188 -0.246094 2.300781 -0.09375 Z M 2.300781 -0.09375 "/></g></g></g><g fill="#ffffff" fill-opacity="1"><g transform="translate(21.975321, 13.584821)"><g><path d="M 2.441406 0.0859375 C 2.699219 0.160156 2.992188 0.1875 3.21875 0.0390625 C 3.539062 -0.179688 3.824219 -0.453125 3.945312 -0.851562 L 4.0625 -1.277344 C 4.289062 -2.074219 4.476562 -2.878906 4.457031 -3.84375 C 4.488281 -4.109375 4.421875 -4.496094 4.390625 -4.882812 C 4.355469 -5.707031 4.257812 -6.511719 3.796875 -7.222656 C 3.71875 -7.355469 3.632812 -7.457031 3.511719 -7.542969 C 2.972656 -7.875 2.355469 -7.816406 1.847656 -7.410156 C 1.46875 -7.109375 1.238281 -6.710938 1.050781 -6.285156 C 0.710938 -5.507812 0.453125 -4.722656 0.472656 -3.863281 C 0.472656 -3.40625 0.550781 -2.960938 0.605469 -2.519531 C 0.679688 -2.007812 0.8125 -1.515625 1.042969 -1.050781 C 1.324219 -0.464844 1.808594 -0.0742188 2.441406 0.0859375 Z M 3.019531 -0.617188 C 2.765625 -0.320312 2.28125 -0.359375 1.949219 -0.699219 C 1.609375 -1.042969 1.355469 -1.4375 1.203125 -1.902344 C 0.984375 -2.621094 0.917969 -3.339844 0.984375 -4.097656 C 1.050781 -4.761719 1.183594 -5.375 1.496094 -5.953125 C 1.714844 -6.359375 1.988281 -6.730469 2.308594 -7.070312 C 2.601562 -7.363281 3.066406 -7.335938 3.332031 -7.023438 C 3.617188 -6.691406 3.777344 -6.324219 3.84375 -5.898438 C 3.9375 -5.300781 4.023438 -4.695312 3.996094 -4.191406 C 3.996094 -3.238281 3.878906 -2.414062 3.632812 -1.601562 C 3.519531 -1.210938 3.273438 -0.910156 3.019531 -0.617188 Z M 3.019531 -0.617188 "/></g></g></g><g fill="#ffffff" fill-opacity="1"><g transform="translate(17.385771, 22.95152)"><g><path d="M 0.832031 0.253906 C 1.023438 0.1875 1.203125 0.125 1.382812 0.046875 C 1.65625 -0.0664062 1.941406 -0.125 2.234375 -0.113281 C 2.78125 -0.105469 3.332031 -0.0273438 3.863281 0.09375 C 3.984375 0.113281 4.097656 0.152344 4.222656 0.113281 C 4.363281 0.0742188 4.421875 -0.0195312 4.429688 -0.152344 C 4.429688 -0.292969 4.355469 -0.351562 4.230469 -0.371094 C 3.996094 -0.398438 3.777344 -0.445312 3.539062 -0.472656 C 2.832031 -0.558594 2.128906 -0.699219 1.417969 -0.5 C 1.371094 -0.578125 1.417969 -0.625 1.449219 -0.671875 L 2.207031 -1.882812 C 2.886719 -2.972656 3.519531 -4.078125 3.824219 -5.339844 C 3.964844 -5.925781 4.050781 -6.511719 3.785156 -7.097656 C 3.585938 -7.535156 3.199219 -7.742188 2.726562 -7.628906 C 2.207031 -7.496094 1.742188 -7.269531 1.304688 -6.957031 C 1.15625 -6.84375 1.050781 -6.703125 0.976562 -6.53125 C 0.898438 -6.371094 0.957031 -6.246094 1.117188 -6.179688 C 1.296875 -6.09375 1.402344 -6.125 1.550781 -6.324219 C 1.828125 -6.691406 2.1875 -6.9375 2.640625 -7.0625 C 3.085938 -7.175781 3.285156 -7.070312 3.398438 -6.636719 C 3.550781 -6.058594 3.4375 -5.527344 3.140625 -5.027344 C 2.800781 -4.429688 2.460938 -3.84375 2.214844 -3.199219 C 2.140625 -2.992188 2.082031 -2.765625 1.976562 -2.554688 C 1.722656 -1.996094 1.382812 -1.496094 1.050781 -0.984375 C 0.863281 -0.710938 0.699219 -0.425781 0.539062 -0.140625 C 0.472656 -0.046875 0.433594 0.0585938 0.511719 0.160156 C 0.597656 0.285156 0.710938 0.292969 0.832031 0.253906 Z M 0.832031 0.253906 "/></g></g></g><g fill="#ffffff" fill-opacity="1"><g transform="translate(17.385771, 32.318219)"><g><path d="M 2.175781 -0.0585938 C 2.300781 -0.046875 2.347656 -0.140625 2.394531 -0.226562 C 2.46875 -0.359375 2.46875 -0.5 2.480469 -0.652344 C 2.535156 -1.410156 2.519531 -2.1875 2.546875 -2.945312 C 2.59375 -3.996094 2.632812 -5.035156 2.59375 -6.085938 C 2.585938 -6.4375 2.59375 -6.796875 2.59375 -7.144531 C 2.59375 -7.324219 2.667969 -7.429688 2.867188 -7.457031 C 3.171875 -7.488281 3.472656 -7.535156 3.777344 -7.589844 C 3.984375 -7.621094 4.0625 -7.761719 3.984375 -7.949219 C 3.917969 -8.101562 3.785156 -8.0625 3.671875 -8.054688 C 3.09375 -8.015625 2.527344 -7.96875 1.996094 -8 C 1.761719 -8 1.5625 -7.980469 1.371094 -8.007812 C 1.164062 -8.035156 0.964844 -8.007812 0.757812 -7.988281 C 0.605469 -7.980469 0.484375 -7.921875 0.472656 -7.761719 C 0.453125 -7.582031 0.597656 -7.554688 0.730469 -7.523438 C 1.042969 -7.457031 1.363281 -7.449219 1.675781 -7.441406 C 2.042969 -7.429688 2.054688 -7.421875 2.074219 -7.042969 L 2.074219 -6.964844 C 2.042969 -6.058594 2.007812 -5.148438 1.988281 -4.242188 C 1.96875 -3.785156 1.941406 -3.332031 1.976562 -2.886719 C 2.042969 -2.167969 2.015625 -1.449219 1.96875 -0.738281 C 1.960938 -0.578125 1.996094 -0.417969 2.007812 -0.265625 C 2.015625 -0.160156 2.0625 -0.0664062 2.175781 -0.0585938 Z M 2.175781 -0.0585938 "/></g></g></g><g fill="#ffffff" fill-opacity="1"><g transform="translate(21.871227, 32.318219)"><g><path d="M 3.816406 -0.0742188 C 3.957031 0.0078125 4.191406 -0.0859375 4.257812 -0.226562 C 4.335938 -0.398438 4.242188 -0.511719 4.117188 -0.605469 C 4.078125 -0.632812 4.03125 -0.671875 3.996094 -0.671875 C 3.75 -0.679688 3.652344 -0.863281 3.519531 -1.023438 C 3.304688 -1.316406 3.191406 -1.648438 3.113281 -1.996094 C 2.992188 -2.527344 2.960938 -3.078125 2.699219 -3.578125 C 2.648438 -3.664062 2.648438 -3.785156 2.621094 -3.890625 C 2.554688 -4.136719 2.613281 -4.316406 2.800781 -4.503906 C 3.445312 -5.148438 3.71875 -5.898438 3.398438 -6.804688 C 3.304688 -7.050781 3.179688 -7.25 2.972656 -7.429688 C 2.753906 -7.609375 2.5 -7.6875 2.253906 -7.761719 C 1.863281 -7.882812 1.46875 -7.949219 1.058594 -7.921875 C 0.652344 -7.894531 0.445312 -7.628906 0.472656 -7.25 C 0.53125 -6.390625 0.605469 -5.527344 0.566406 -4.667969 C 0.53125 -3.796875 0.625 -2.933594 0.652344 -2.074219 C 0.664062 -1.648438 0.71875 -1.230469 0.691406 -0.804688 C 0.671875 -0.632812 0.691406 -0.464844 0.746094 -0.292969 C 0.765625 -0.207031 0.8125 -0.132812 0.917969 -0.132812 C 1.011719 -0.132812 1.070312 -0.199219 1.117188 -0.273438 C 1.171875 -0.371094 1.15625 -0.484375 1.164062 -0.597656 C 1.210938 -1.25 1.089844 -1.902344 1.078125 -2.566406 C 1.078125 -2.746094 1.097656 -2.933594 1.078125 -3.113281 C 1.058594 -3.273438 1.117188 -3.359375 1.257812 -3.425781 C 1.449219 -3.511719 1.636719 -3.585938 1.828125 -3.683594 C 2.109375 -3.816406 2.109375 -3.816406 2.207031 -3.53125 C 2.375 -3.058594 2.488281 -2.574219 2.585938 -2.082031 C 2.660156 -1.65625 2.820312 -1.257812 2.980469 -0.871094 C 3.140625 -0.492188 3.492188 -0.285156 3.816406 -0.0742188 Z M 1.089844 -3.957031 C 0.964844 -4.03125 1.011719 -4.191406 1.023438 -4.324219 L 1.023438 -4.722656 C 1.003906 -5.226562 1.15625 -5.71875 1.117188 -6.21875 C 1.097656 -6.492188 1.070312 -6.777344 1.058594 -7.050781 C 1.058594 -7.363281 1.097656 -7.402344 1.402344 -7.382812 C 1.628906 -7.363281 1.855469 -7.324219 2.082031 -7.277344 C 2.253906 -7.25 2.394531 -7.15625 2.507812 -7.015625 C 2.574219 -6.929688 2.648438 -6.851562 2.726562 -6.769531 C 3.191406 -6.21875 3.207031 -5.660156 2.734375 -5.121094 C 2.367188 -4.714844 1.941406 -4.371094 1.484375 -4.0625 C 1.371094 -3.976562 1.230469 -3.863281 1.089844 -3.957031 Z M 1.089844 -3.957031 "/></g></g></g><g fill="#ffffff" fill-opacity="1"><g transform="translate(26.631109, 32.318219)"><g><path d="M 1.136719 0.152344 C 1.4375 0.0859375 1.742188 0.09375 2.042969 0.09375 C 2.300781 0.0859375 2.554688 0.0585938 2.8125 0.0390625 C 2.945312 0.0273438 3 -0.046875 2.972656 -0.1875 C 2.933594 -0.339844 2.847656 -0.425781 2.699219 -0.433594 C 2.59375 -0.445312 2.480469 -0.433594 2.375 -0.425781 C 2.054688 -0.378906 2.0625 -0.378906 1.996094 -0.691406 C 1.847656 -1.363281 1.875 -2.042969 1.882812 -2.894531 C 1.910156 -3.578125 1.847656 -4.421875 1.894531 -5.273438 C 1.921875 -5.847656 1.902344 -6.417969 1.921875 -6.996094 C 1.921875 -7.25 1.976562 -7.289062 2.222656 -7.269531 C 2.308594 -7.269531 2.394531 -7.25 2.480469 -7.261719 C 2.585938 -7.261719 2.726562 -7.222656 2.734375 -7.382812 C 2.746094 -7.515625 2.726562 -7.65625 2.574219 -7.722656 C 2.527344 -7.742188 2.480469 -7.753906 2.433594 -7.761719 C 1.941406 -7.800781 1.4375 -7.847656 0.945312 -7.875 C 0.863281 -7.882812 0.777344 -7.847656 0.699219 -7.816406 C 0.585938 -7.769531 0.453125 -7.734375 0.472656 -7.570312 C 0.492188 -7.429688 0.617188 -7.382812 0.738281 -7.355469 C 0.871094 -7.335938 1.003906 -7.324219 1.136719 -7.308594 C 1.382812 -7.277344 1.417969 -7.242188 1.449219 -6.984375 L 1.449219 -6.804688 C 1.457031 -4.835938 1.34375 -2.867188 1.46875 -0.890625 C 1.476562 -0.746094 1.515625 -0.597656 1.417969 -0.464844 C 1.34375 -0.351562 1.191406 -0.40625 1.078125 -0.378906 C 1.058594 -0.371094 1.03125 -0.371094 1.011719 -0.351562 C 0.878906 -0.285156 0.746094 -0.199219 0.785156 -0.0195312 C 0.832031 0.160156 0.984375 0.179688 1.136719 0.152344 Z M 1.136719 0.152344 "/></g></g></g><g fill="#ffffff" fill-opacity="1"><g transform="translate(30.085101, 32.318219)"><g><path d="M 0.738281 -0.0585938 C 0.8125 -0.046875 0.878906 -0.0859375 0.917969 -0.152344 C 0.957031 -0.21875 0.984375 -0.285156 0.992188 -0.351562 C 1.050781 -0.871094 1.117188 -1.390625 1.15625 -1.910156 C 1.183594 -2.300781 1.15625 -2.6875 1.089844 -3.078125 C 1.042969 -3.425781 1.078125 -3.464844 1.402344 -3.597656 C 1.550781 -3.664062 1.714844 -3.730469 1.875 -3.785156 C 2.320312 -3.957031 2.765625 -4.136719 3.058594 -4.542969 C 3.09375 -4.589844 3.140625 -4.628906 3.191406 -4.667969 C 3.832031 -5.214844 3.964844 -6.171875 3.597656 -6.898438 C 3.324219 -7.46875 2.867188 -7.761719 2.253906 -7.828125 C 1.929688 -7.867188 1.601562 -7.875 1.269531 -7.894531 C 1.003906 -7.902344 0.777344 -7.78125 0.578125 -7.601562 C 0.40625 -7.457031 0.5 -7.269531 0.5 -7.089844 C 0.511719 -6.484375 0.617188 -5.878906 0.511719 -5.273438 C 0.472656 -5.101562 0.484375 -4.921875 0.511719 -4.761719 C 0.550781 -4.515625 0.550781 -4.269531 0.550781 -4.03125 C 0.539062 -3.519531 0.539062 -3.011719 0.53125 -2.5 L 0.550781 -2.5 C 0.539062 -1.863281 0.539062 -1.230469 0.53125 -0.597656 C 0.53125 -0.464844 0.539062 -0.332031 0.585938 -0.199219 C 0.605469 -0.125 0.652344 -0.0664062 0.738281 -0.0585938 Z M 1.304688 -4.078125 C 1.136719 -4.03125 1.089844 -4.078125 1.058594 -4.222656 C 1.050781 -4.269531 1.03125 -4.316406 1.042969 -4.363281 C 1.058594 -4.914062 0.9375 -5.460938 0.976562 -6.019531 C 0.9375 -6.390625 1.03125 -6.757812 1.042969 -7.136719 C 1.042969 -7.308594 1.125 -7.421875 1.296875 -7.429688 C 1.769531 -7.457031 2.253906 -7.429688 2.6875 -7.222656 C 3.417969 -6.863281 3.691406 -5.6875 2.90625 -4.988281 C 2.441406 -4.570312 1.941406 -4.222656 1.304688 -4.078125 Z M 1.304688 -4.078125 "/></g></g></g></svg>